<?xml version="1.0" encoding="utf-8"?>
<!-- Generator: Adobe Illustrator 25.2.3, SVG Export Plug-In . SVG Version: 6.00 Build 0)  -->
<svg version="1.1" id="Calque_1" xmlns="http://www.w3.org/2000/svg" xmlns:xlink="http://www.w3.org/1999/xlink" x="0px" y="0px"
	 viewBox="0 0 1031.81 728.5" style="enable-background:new 0 0 1031.81 728.5;" xml:space="preserve">
<style type="text/css">
	.st0{fill:#F9A71B;}
	.st1{fill:#FA920F;}
	.st2{fill:#0186B0;}
	.st3{fill:#19845E;}
	.st4{fill:#7AB71E;}
	.st5{fill:#CD3D04;}
	.st6{fill:#0779BC;}
	.st7{fill:#4C9F2E;}
	.st8{fill:#D74104;}
	.st9{fill:#BD3204;}
	.st10{fill:#E16105;}
	.st11{fill:#288C4C;}
	.st12{fill:#EE7507;}
	.st13{fill:#0C316F;}
</style>
<g>
	<path class="st0" d="M502.28,382.87c2.53-0.17,5.06-0.34,7.59-0.52c0.71,6.72,1.42,13.44,2.13,20.16
		c0.03,25.81,0.05,51.62,0.08,77.44c-0.1,6.24-0.21,12.48-0.31,18.72c-1.21,0.65-3.48,1.29-3.48,1.94
		c-0.05,10.23-5.72,7.02-11.25,4.28c-0.29-18.8-0.58-37.6-0.87-56.4c0.26-13.26,0.52-26.52,0.78-39.78
		c2.63-3.29,1.33-6.99,1.27-10.56c-0.34-1.65-0.13-4.27-1.12-4.76c-3.04-1.5-3.48,1.64-4.21,3.21
		c-7.33,15.9-14.09,32.03-21.82,47.76c-9.16,18.62-16.94,20.85-37.82,13.5c-39.49-13.89-79.14-27.42-118.73-41.08
		c-3.72-1.29-7.5-3.69-11.22,0.06c-1.62-6.38-7.58-6.63-12.82-8.17c-15.33-4.5-22.4-6.18-16.29-24.71
		c5-15.17,8.23-30.89,11.59-46.49c1.93-8.97,5.41-12.55,15.92-9.31c48.59,15.02,98.18,26.82,147.4,39.85
		c15.93,4.22,31.66,9.13,47.47,13.72C498.05,383.98,500.07,383.84,502.28,382.87z"/>
	<path class="st1" d="M512,402.52c-0.71-6.72-1.42-13.44-2.13-20.16c7.09-3.85,15.36-3.26,22.93-5.29c2.27,0.62,4.4,0.72,5.96-1.37
		c47.5-10.94,94.99-21.91,142.51-32.81c19.02-4.37,38.07-8.63,57.12-12.88c6.24-1.39,10.03,1.33,11.79,6.77
		c6.22,19.23,12.76,38.38,18.42,57.75c3.44,11.76,1.02,14.79-12.36,18.3c-5.72,1.5-11.82,1.99-13.83,8.55
		c-1.24-0.62-2.6-1.93-3.72-1.77c-11.99,1.67-24.06,4.15-35.49,7.08c-8.46,2.17-19.19,2.42-25.99,9.73
		c-11.13-7.01-20.72-15.81-29.65-24.94c-9.89-10.11-17.95-5.36-23.17,3.43c-5.66,9.53-9.3,20.18-17.67,28.21
		c1.55-8.46-3.2-13.8-11.36-12.74c-7.91,1.02-15.13,0.52-22.87-0.33c-9.49-1.04-20.53-2.82-28.52,0.6
		c-10.45,4.46-13.55-1.23-17.29-6.44c-2.95-4.11-5.71-8.67-6.54-14.06C519.56,406.39,518.53,401.44,512,402.52z"/>
	<path class="st2" d="M590.36,209.78c0,13.92-1.26,27.98,0.33,41.74c1.8,15.55-4.34,26.1-16.84,35.49
		c-7.39,5.56-11.38,6.79-18.43-0.83c-11.87-12.83-25.34-24.39-38.48-36.15c-4.14-3.71-5.7-7.54-5.66-12.82
		c0.19-27.5,0.26-55-0.15-82.5c-0.13-8.7,2.37-12.32,12.58-11.86c18.2,0.82,36.48,0.64,54.69,0.08c9.44-0.29,12.39,2.99,12.17,11.51
		c-0.48,18.44-0.15,36.9-0.15,55.35C590.41,209.78,590.39,209.78,590.36,209.78z"/>
	<path class="st3" d="M541.6,291.4c4.24,3.7,8.6,7.29,12.7,11.11c10.12,9.44,10.06,9.47,20.84,0.13c4.26-3.69,8.58-7.33,12.88-10.99
		c9.54,5.67,19.3,8.68,30.43,3.58c9.77-4.48,15.26-1.35,16.56,8.94c-17.1,17.91-36.9,33.19-55.66,49.45
		c-8.65,7.5-24.61,5.86-32.86-1.75c-14.82-13.68-29.72-27.28-44.52-40.98c-5.76-5.34-10.03-6.85-16.93,0.09
		c-13.37,13.45-28.35,25.49-42.53,38.24c-3.24,2.92-6.32,4.14-10.94,2.85c-13.45-3.77-27.02-7.13-42.47-11.15
		c21.95-19.13,42.72-37.24,63.49-55.35c5-0.83,6.51,2.6,7.58,5.91c1.05,3.26,3.12,4.66,6.48,4.25c10.16-1.25,20.29-1.6,30.51-1.69
		c8.6-0.08,15.87,1.63,23.28,3.79c3.7,1.08,6.9,1.22,6.18-1.91c-2.18-9.49,4.6-8.24,10.31-8.72c0,0-0.12-0.1-0.12-0.09
		C536.62,290.26,538.34,291.58,541.6,291.4z"/>
	<path class="st4" d="M607.35,174.04c-2.38-25.63-0.31-51.29-0.64-76.93c-0.06-4.63,2.91-6.65,7.92-6.61
		c21.54,0.15,43.08,0.3,64.61,0.14c6.14-0.04,7.72,2.94,7.65,7.73c-0.23,15.6-0.5,31.2-0.76,46.79c-0.61,1.23-1.61,2.42-1.76,3.69
		c-1.9,16.45-4.34,17.95-18.46,11.41c-1.17-0.54-3.01-0.39-4.32,0.02c-12.78,4-25.46,8.54-39.1,2.96c-1.7-0.69-2.79,0.69-2.98,2.15
		c-0.48,3.68-2.15,4.65-6.02,3.33C608.27,166.94,608.8,171.64,607.35,174.04z"/>
	<path class="st5" d="M496.16,448.49c0.29,18.8,0.58,37.6,0.87,56.4c-0.05,10.42-0.1,20.85-0.14,31.27c-0.83,2.13-1.67,4.27-2.5,6.4
		c-5.61,1.71-8.44-5.74-14.31-3.65c-13.7,4.89-27.92,5.15-42.3,3.91c-1.67-0.14-4.83,0.57-4.97,1.29
		c-2.14,10.84-8.41,4.87-13.96,3.45c-2.84-0.73-9.25-2.48-7.71,2.51c2.42,7.88-1.3,4.73-5,3.75c-12.67-3.38-23.81-11.3-37.68-11.08
		c-20.55-6.06-39.06-16.63-59.19-23.64c-3.05-1.06-5.26-3.77-5.45-7.24c0.28-5.06,0.56-10.14,0.84-15.22
		c0.5-0.02,0.99-0.04,1.49-0.05c0.13,19.81,2.22,21.32,21.86,17.05c3.84-0.84,8.12-1,11.91,1.19c4.94,2.85,9.45,5.44,13.9-1.38
		c2.42-3.7,7.52-0.67,10,0.61c4.56,2.36-0.06,4.23-1.93,5.87c-2.45,2.15-2.26,4.38-0.03,6.28c2.74,2.33,5.47,2.24,6.93-1.36
		c1.17-2.88,3.74-3,6.3-3.37c13.36-1.92,27.16-2.28,38.88-9.91c0.79-0.51,2.2-0.36,3.29-0.26c19.56,1.77,37.83-4.02,56.36-8.33
		c12.83-2.99,19.81-12.1,18.2-23.81c-0.28-2.07-0.05-4.51-2.83-5.01c-2.95-0.53-3.07,2.14-4.29,3.79c-3.63,4.89-7.42,9.95-15.25,8.2
		c7.55-8.61,15.83-16.59,16.35-29.04C485.97,453.05,489.46,447.96,496.16,448.49z"/>
	<path class="st6" d="M413.98,248.08c0-13.91,0.36-27.83-0.14-41.73c-0.28-7.91,2.08-11.34,11.27-11.08
		c19.32,0.55,38.67,0.44,57.99,0.04c8.3-0.17,10.43,2.83,11.14,10.3c1.61,16.83-2.05,29.92-17.48,41.33
		c-18.83,13.93-35.02,30.95-52.49,46.51c-2.25,2.01-4.22,5.56-8.19,4.34c-4.72-1.45-1.78-5.45-1.85-7.99
		c-0.44-13.9-0.21-27.81-0.21-41.72C414.01,248.08,414,248.08,413.98,248.08z"/>
	<path class="st7" d="M679.67,212.12c16.92-13.47-3.61-18.8-7.75-28.96c30.68-9.01,60.95-17.95,91.26-26.77
		c4.99-1.45,5.72,0.77,4.54,4.94c-7.84,27.8-15.6,55.63-23.23,83.48c-1.43,5.2-3.29,4.94-7.43,1.95
		c-6.42-4.65-9.21-13.89-19.47-13.74c-6.26-0.04-10.37,2.3-10.88,8.62c0,0,0.11-0.09,0.11-0.09c-3.57-0.11-4.36-3.22-6.44-4.97
		c-5.07-4.28-11.16-10.33-17.99-7.12c-12.23,5.74-12.08-0.29-11.42-8.36l0.1-0.6c0,0,0.65,0,0.65,0.01
		c0.45-0.59,0.91-1.18,1.36-1.78l0.08-0.29C677.32,218.13,679.49,216.03,679.67,212.12z"/>
	<path class="st8" d="M512.21,597.27c-5.46,3.52-10.74,2.55-15.92-0.59c0.06-10.4,0.13-20.8,0.19-31.21
		c11.15,3.07,14.78,0.92,15.33-9.71c0.37-7.16,0.02-14.35-0.01-21.53c0.05-0.67,0.11-1.34,0.18-2.02
		c26.21-0.39,52.36,0.38,78.54,1.75c6.15,0.32,20.11,2.89,11.23-11.68c-1.12-1.84-0.85-5.25,2.11-6.3c5.3-1.87,4.06-5.89,4.35-9.55
		c0.27-3.33-1.19-7.02,2.14-9.77c0.18,9,0.45,18,0.5,27c0.04,7.13,2.69,9.3,10.31,6.34c8.81-3.42,17.12-8.33,26.96-9.15
		c0.85,3.11-1.15,7.1,3.41,9.06c9.13,3.93,17.14,12.21,28.82,4.81c3.34-2.12,8.46-1.78,12.77-2.57c0,0,0.07,0.08,0.07,0.08
		c0.13,0.8,0.26,1.6,0.38,2.4c0,0-0.17,0.01-0.17,0c-4.19,0.14-8.13,0.96-11.33,3.74c-15.97,6.73-32.31,12.52-49.17,16.98
		c-9.72-2.59-21.52-2.95-27.51,3.03c-8.3,8.3-22.88,1.02-28.21,12.56c-0.02,0.05-1.34-0.31-1.95-0.64
		c-8.46-4.58-18.27-5.98-27.39-7.31c-25.07-3.67-38.91-5.21-35.88,23.31c0.3,2.84-0.5,5.38-2.26,7.85
		C507.95,596.63,510.56,596.79,512.21,597.27z"/>
	<path class="st9" d="M306.14,496.61c-0.5,0.01-0.99,0.02-1.49,0.05c-0.31-17.99-0.62-35.98-0.93-53.97
		c-0.01-1.64-0.01-3.27-0.02-4.9c-0.09-5.21-0.19-10.43-0.28-15.65c-0.04-1.76-0.09-3.53-0.13-5.29c3.71-3.75,7.49-1.35,11.22-0.06
		c39.59,13.66,79.23,27.18,118.73,41.08c20.88,7.35,28.67,5.12,37.82-13.5c7.73-15.72,14.49-31.86,21.82-47.76
		c0.73-1.57,1.17-4.71,4.21-3.21c0.99,0.49,0.78,3.11,1.12,4.76c-2.66,3.28-1.84,6.94-1.28,10.56c-0.26,13.26-0.52,26.52-0.78,39.78
		c-6.7-0.53-10.19,4.56-10.36,8.63c-0.51,12.46-8.79,20.43-16.35,29.04c-5.57-0.09-11.87,1.39-16.58-0.53
		c-21.23-8.71-42.9-16.33-64.47-24.21c-24.61-8.99-49.14-18.18-73.65-27.43c-7.19-2.71-8.89-0.32-8.76,6.3
		C306.34,459.06,306.13,477.84,306.14,496.61z"/>
	<path class="st10" d="M693.57,534.66c-0.13-0.8-0.26-1.6-0.38-2.4c2.16-0.51,4.77,0.87,6.77-1.32c-2.85-1.46-5.02-0.89-6.85,1.23
		c-4.31,0.79-9.43,0.45-12.77,2.57c-11.68,7.41-19.69-0.88-28.82-4.81c-4.55-1.96-2.55-5.95-3.41-9.06
		c11.17-4.31,17.64-10.97,15.86-23.41c-1.02-7.11,0.13-14.49,0.3-21.75c11.24-4.18,22.18-4.31,33.76-0.08
		c14.34,5.24,29.18-2.14,43.82,0.03c0.34,12.75,1.38,25.46-1.4,38.2c-0.97,4.46-2.78,6.91-6.94,8.23
		C720.21,526.32,706.89,530.47,693.57,534.66z"/>
	<path class="st11" d="M670.97,221.1c-0.66,8.08-0.81,14.11,11.42,8.36c6.83-3.21,12.92,2.84,17.99,7.12
		c2.08,1.76,2.87,4.86,6.44,4.97c-22.9,21.92-47.01,42.62-71.82,62.63c-1.3-10.28-6.79-13.41-16.56-8.94
		c-11.12,5.1-20.89,2.09-30.43-3.58C615.36,267.82,641.06,242.3,670.97,221.1z"/>
	<path class="st7" d="M607.35,174.04c1.45-2.4,0.92-7.1,6.14-5.31c3.87,1.33,5.54,0.35,6.02-3.33c0.19-1.46,1.28-2.84,2.98-2.15
		c13.64,5.57,26.32,1.04,39.1-2.96c1.32-0.41,3.16-0.56,4.32-0.02c14.12,6.54,16.57,5.04,18.46-11.41c0.15-1.27,1.15-2.46,1.76-3.69
		c0.13,3.81,0.02,7.65,0.45,11.43c0.77,6.71-2.27,10.31-9.27,11.8c-5.02,1.07-9.96,2.7-14.75,4.5c-9.56,3.61-11.17,11.25-4.07,18.48
		c1.75,1.78,3.68,3.43,5.63,5.03c4.38,3.6,5.01,6.8,0.17,10.87c-18.43,15.51-36.62,31.27-54.9,46.93c0,0-0.43,0.02-0.43,0.02
		c-3.03-1.93-2.2-5.01-2.2-7.57C606.86,222.46,607.13,198.25,607.35,174.04z"/>
	<path class="st12" d="M741.86,475.66c-14.64-2.17-29.48,5.21-43.82-0.03c-11.58-4.23-22.52-4.1-33.76,0.08
		c-0.12-3.78,0.09-7.6-0.43-11.33c-0.96-6.92,1.88-10.46,9.15-12.69c11.48-3.51,11.71-5.56,4.21-15.28c6.81-7.31,17.53-7.56,26-9.73
		c11.43-2.93,23.5-5.41,35.49-7.08c1.12-0.16,2.47,1.15,3.72,1.77C742.23,439.47,742.05,457.57,741.86,475.66z"/>
	<path class="st9" d="M496.49,565.47c-0.06,10.4-0.13,20.8-0.19,31.21c-0.77-0.17-1.54-0.35-2.32-0.52
		c-0.25-0.76-0.77-1.01-1.57-0.77c-33.82-14.05-67.7-28-101.43-42.24c-7.61-3.21-16.12-4.84-22.53-10.37
		c13.87-0.23,25.01,7.7,37.68,11.08c3.69,0.99,7.42,4.13,5-3.75c-1.53-4.99,4.87-3.24,7.71-2.51c5.55,1.42,11.82,7.38,13.96-3.45
		c0.14-0.72,3.3-1.43,4.97-1.29c14.39,1.23,28.6,0.97,42.3-3.91c5.86-2.09,8.7,5.36,14.3,3.65
		C497.05,550.05,496.31,557.79,496.49,565.47z"/>
	<path class="st9" d="M686.66,308.08c11.94,7.23,27.25,6.3,40.26,14.44c-40.06,8.65-78.98,17.06-117.91,25.47
		c-0.56-0.72-1.12-1.43-1.68-2.15c16.78-14.23,33.57-28.45,50.35-42.68C667.87,302.08,676.34,309.84,686.66,308.08z"/>
	<path class="st13" d="M452.91,357.79c11.87-13.22,25.05-23.25,37.27-34.2c3.25-2.91,5.09-1.03,7.33,0.96
		c13.87,12.32,27.77,24.61,43.03,38.12c-19.19,4.71-35.26,13.67-54.32,4.44C476.59,362.45,465.14,361.08,452.91,357.79z"/>
	<path class="st11" d="M536.92,287.19c-5.71,0.49-12.49-0.77-10.31,8.72c0.72,3.13-2.49,2.99-6.18,1.91
		c-7.41-2.16-14.68-3.88-23.28-3.79c-10.22,0.1-20.35,0.45-30.51,1.69c-3.35,0.41-5.43-0.99-6.48-4.25
		c-1.07-3.31-2.58-6.74-7.58-5.91c12.28-11.01,24.62-21.95,36.79-33.07c3.37-3.08,5.92-4.66,10.08-0.71
		C511.9,263.62,525.6,274.3,536.92,287.19z"/>
	<path class="st10" d="M305.56,320.31c30.29-7.1,57.95-13.72,85.72-19.95c3.37-0.76,8.8-4.52,10.63,0.9
		c1.43,4.26,2.5,10.01-1.61,13.95c-7.5,7.17-15.5,13.89-23.3,20.78c-1.84,1.63-4.23,1.52-6.3,1
		C349.68,331.69,328.72,326.26,305.56,320.31z"/>
	<path class="st5" d="M512.21,597.27c-1.65-0.48-4.27-0.64-2.53-3.09c1.76-2.47,2.56-5.01,2.26-7.85
		c-3.03-28.53,10.81-26.99,35.88-23.31c9.12,1.34,18.93,2.73,27.39,7.31c0.61,0.33,1.93,0.69,1.95,0.64
		c5.33-11.54,19.9-4.26,28.21-12.56c5.99-5.99,17.79-5.62,27.51-3.03c-22.06,9.94-45.66,16.13-68.42,24.36
		C547.21,585.97,529.64,591.45,512.21,597.27z"/>
	<path class="st7" d="M686.66,308.08c-10.32,1.76-18.8-6-28.98-4.91c9.1-7.9,18.2-15.79,28.98-25.14
		C686.66,289.52,686.66,298.8,686.66,308.08z"/>
	<path class="st0" d="M303.72,442.69c0.31,17.99,0.62,35.98,0.93,53.97c-0.28,5.08-0.56,10.16-0.84,15.23
		C302.24,488.81,302.3,465.75,303.72,442.69z"/>
	<path class="st11" d="M706.71,241.64c0.5-6.32,4.61-8.66,10.88-8.62C714.29,236.26,711.33,239.87,706.71,241.64z"/>
	<path class="st0" d="M303.43,422.13c0.09,5.22,0.19,10.44,0.28,15.65C302.31,432.58,301.84,427.37,303.43,422.13z"/>
	<path class="st11" d="M679.67,212.12c-0.17,3.91-2.35,6.01-6.51,6.31C674,215.14,677.15,213.91,679.67,212.12z"/>
	<path class="st1" d="M502.28,382.87c-2.21,0.98-4.24,1.12-5.71-1.14C498.81,380.64,500.76,380.8,502.28,382.87z"/>
	<path class="st10" d="M682.06,538.4c3.2-2.77,7.14-3.59,11.33-3.74C690.11,537.22,686.26,538.26,682.06,538.4z"/>
	<path class="st11" d="M541.6,291.4c-3.26,0.19-4.98-1.14-4.81-4.3C539.16,287.78,540.76,289.22,541.6,291.4z"/>
	<path class="st0" d="M538.76,375.69c-1.56,2.09-3.69,1.99-5.96,1.37C534.41,375.21,536.58,375.45,538.76,375.69z"/>
	<path class="st4" d="M608.98,254.24c0,0,0.43-0.02,0.43-0.02c0,0-0.25,0.62-0.25,0.62L608.98,254.24z"/>
	<path class="st11" d="M673.08,218.72c-0.46,0.59-0.91,1.19-1.36,1.78C672.17,219.91,672.62,219.32,673.08,218.72z"/>
	<path class="st8" d="M492.41,595.38c0.8-0.24,1.32,0.02,1.57,0.77c0,0-1.03,0.06-1.03,0.06L492.41,595.38z"/>
	<path class="st10" d="M610.35,496.67c-3.33,2.75-1.86,6.44-2.14,9.77c-0.3,3.65,0.95,7.68-4.35,9.55c-2.96,1.04-3.23,4.46-2.11,6.3
		c8.88,14.57-5.08,12-11.23,11.68c-26.18-1.37-52.33-2.14-78.54-1.75c-0.07-11.18-0.14-22.35-0.21-33.53
		c0.1-6.24,0.21-12.48,0.31-18.72c2.15-0.42,4.85-0.21,6.35-1.37c7.59-5.86,14.82-10.1,25.48-5.33c4.59,2.06,10.68,0.03,16.12-2.01
		c11.83-4.44,24.05-7.97,36.11-11.87c-1.36,2.41-2.74,4.81-4.09,7.23c-1.44,2.6-5.05,5.13-2.26,8.19c2.04,2.25,5.59,1.02,8.44,0.46
		c12.27-2.42,12.95-1.98,12.89,10.08C611.09,489.12,610.61,492.89,610.35,496.67z"/>
	<path class="st12" d="M596.13,459.38c-12.06,3.9-24.28,7.43-36.11,11.87c-5.44,2.04-11.53,4.06-16.12,2.01
		c-10.66-4.77-17.88-0.53-25.48,5.33c-1.5,1.16-4.2,0.95-6.35,1.37c-0.02-25.81-0.05-51.62-0.08-77.44
		c6.53-1.08,7.57,3.88,8.15,7.62c0.83,5.39,3.59,9.95,6.54,14.06c3.74,5.22,6.84,10.91,17.29,6.44c7.99-3.41,19.03-1.64,28.52-0.6
		c7.74,0.85,14.96,1.35,22.87,0.33c8.16-1.05,12.92,4.28,11.36,12.74C604.66,449.38,600.78,454.6,596.13,459.38z"/>
	<path class="st1" d="M511.76,498.68c0.07,11.18,0.14,22.35,0.21,33.53c-0.06,0.67-0.12,1.34-0.17,2.02
		c-4.9,1.14-9.7,2.92-14.92,1.94c0.05-10.42,0.09-20.85,0.14-31.27c5.54,2.74,11.21,5.95,11.26-4.28
		C508.29,499.97,510.55,499.32,511.76,498.68z"/>
	<path class="st12" d="M496.94,408.71c-0.57-3.63-1.38-7.28,1.28-10.56C498.28,401.72,499.57,405.42,496.94,408.71z"/>
	<path class="st8" d="M306.14,496.61c-0.01-18.77,0.2-37.55-0.15-56.32c-0.12-6.62,1.58-9.01,8.76-6.3
		c24.51,9.25,49.04,18.44,73.65,27.43c21.57,7.88,43.24,15.5,64.47,24.21c4.71,1.93,11.01,0.45,16.58,0.53
		c7.82,1.75,11.61-3.31,15.25-8.2c1.22-1.65,1.35-4.32,4.29-3.79c2.79,0.5,2.55,2.94,2.83,5.01c1.61,11.72-5.38,20.83-18.2,23.81
		c-18.53,4.31-36.8,10.1-56.36,8.33c-1.09-0.1-2.5-0.25-3.29,0.26c-11.72,7.62-25.52,7.98-38.88,9.91c-2.56,0.37-5.13,0.49-6.3,3.37
		c-1.46,3.6-4.19,3.7-6.93,1.36c-2.23-1.9-2.42-4.12,0.03-6.28c1.87-1.64,6.49-3.51,1.93-5.87c-2.48-1.28-7.58-4.32-10-0.61
		c-4.46,6.82-8.96,4.23-13.9,1.38c-3.8-2.19-8.07-2.03-11.91-1.19C308.36,517.93,306.28,516.42,306.14,496.61z"/>
	<path class="st12" d="M496.88,536.17c5.21,0.97,10.02-0.81,14.92-1.94c0.03,7.18,0.38,14.37,0.01,21.53
		c-0.55,10.64-4.18,12.78-15.33,9.71c-0.18-7.67,0.56-15.42-2.11-22.89C495.22,540.44,496.05,538.3,496.88,536.17z"/>
	<path class="st8" d="M693.11,532.17c1.83-2.12,3.99-2.7,6.85-1.23c-2,2.18-4.61,0.8-6.77,1.32
		C693.19,532.25,693.11,532.17,693.11,532.17z"/>
</g>
</svg>
