<?xml version="1.0" encoding="utf-8"?>
<!-- Generator: Adobe Illustrator 25.2.3, SVG Export Plug-In . SVG Version: 6.00 Build 0)  -->
<svg version="1.1" id="Calque_1" xmlns="http://www.w3.org/2000/svg" xmlns:xlink="http://www.w3.org/1999/xlink" x="0px" y="0px"
	 viewBox="0 0 1031.81 728.5" style="enable-background:new 0 0 1031.81 728.5;" xml:space="preserve">
<style type="text/css">
	.st0{fill:none;}
	.st1{fill:#2E2E2E;}
	.st2{fill:#AD1518;}
</style>
<g>
	<path class="st0" d="M542,861.41c-254.47,0-508.94-0.01-763.41,0.09c-3.75,0-4.59-0.84-4.59-4.59c0.1-338.27,0.1-676.54,0-1014.82
		c0-3.75,0.84-4.59,4.59-4.59c508.94,0.1,1017.88,0.1,1526.81,0c3.75,0,4.59,0.84,4.59,4.59c-0.1,338.27-0.1,676.54,0,1014.82
		c0,3.75-0.84,4.59-4.59,4.59C1050.94,861.4,796.47,861.41,542,861.41z M1027.93,271.53c-0.13-0.26-0.25-0.52-0.38-0.78
		c-0.09,0.2-0.18,0.41-0.27,0.61c0.24,0.03,0.48,0.06,0.72,0.08c0.21,6.58,1.78,13.09,0.29,19.75
		c-3.27,14.68-12.25,25.6-22.81,35.57c-7.51,7.08-7.55,7.18-1.6,15.76c4.25,6.13,9.37,11.85,6.74,21.06
		c9.25-5.25,16.33-11.46,22.97-18.19C1055.74,322.94,1052.18,293.1,1027.93,271.53z M1013.88,297.65c3.69-6.38,6.87-13.25,7.01-21.2
		c0.41-24.49,0.79-48.98,1.41-73.46c0.09-3.61-1.17-5.31-4.27-6.77c-12.92-6.11-25.79-12.35-38.54-18.81
		c-2.32-1.18-4.16-1.3-6.48-0.5c-10.54,3.61-21.19,6.94-31.66,10.74c-3.88,1.41-4.73,0.72-4.68-3.34c0.17-16.99,0-33.99,0.05-50.98
		c0.01-2.35-0.42-3.84-2.76-5.13c-11.37-6.25-22.61-12.74-33.82-19.25c-1.95-1.13-3.42-1.19-5.42-0.06
		c-10.87,6.13-21.78,12.19-32.79,18.07c-2.56,1.37-3.5,2.91-3.44,5.8c0.22,10.16,0.13,20.33,0.26,30.49c0.04,3.15-0.61,4.59-4.3,3.6
		c-5.45-1.46-11.11-2.17-16.59-3.55c-3.15-0.79-5.78-0.34-8.57,1.15c-9.83,5.25-19.7,10.43-29.64,15.49
		c-2.1,1.07-2.77,2.36-2.76,4.65c0.08,19.16,0.11,38.32-0.04,57.48c-0.03,3.3,1.26,3.85,4.12,3.71c5.82-0.27,11.67-0.59,17.48-0.27
		c22.42,1.23,39.92,17.03,43.51,39.13c2.83,17.47,1.12,34.55-5.28,51.06c-10.9,28.16-38.46,43.75-68.38,39.03
		c-5.49-0.87-10.67-2.83-16.67-1.74c-19.65,3.57-39.41,6.62-59.18,9.43c-39.74,5.65-79.65,9.86-119.62,13.48
		c-49.12,4.45-98.34,7.21-147.64,8.36c-44.16,1.03-88.3-0.06-132.38-2.76c-29.1-1.79-58.04-5.09-86.85-9.59
		c-10.72-1.67-21.32-5.22-32.53-2.92c0.22,0.65,0.42,1.28,0.64,1.9c6.43,18.06-3.95,31.86-23.14,30.8c-2.03-0.11-4.09-0.65-6.4,0.29
		c1.46,0.63,2.63,1.1,3.77,1.63c48.17,22.18,99.08,33.78,151.61,38.73c37.53,3.54,75.19,4.29,112.85,3.14
		c58.97-1.8,117.7-6.68,176.15-14.74c50.48-6.96,100.63-15.58,149.81-29.21c42.52-11.79,84.33-25.6,124.94-42.94
		c2.4-1.02,4.74-2.16,7.11-3.24c-15.05,3.5-29.61,8.04-44.24,12.36c-14.69,4.34-29.65,7.62-44.65,10.71
		c-14.77,3.05-29.61,5.64-44.75,6.2c4.63-1.65,9.4-2.56,14.15-3.57c47.21-10.05,92.06-27.13,136.19-46.23
		c4.57-1.98,5.39-1.33,5.49,3.44c0.15,7.42,5.83,11.76,12.76,10.29c2.95-0.63,5.48-2.3,8.1-3.77c4.93-2.77,8.42-7.21,12.5-11.22
		c5.84,8.7,11.35,16.82,16.78,25c4.95,7.44,11.92,8.91,19.2,3.84c6.15-4.28,12.16-8.76,18.32-13.01c2.88-1.99,4.06-4.71,4.37-8
		c0.4-4.08-1.34-7.44-3.58-10.64c-5.26-7.5-10.44-15.05-15.79-22.48c-1.5-2.09-1.69-2.92,1.09-4.1c5.96-2.53,11.72-5.55,17.48-8.53
		c4.05-2.09,6.11-6.57,4.39-10.46c-1.34-3.03-2.86-6.03-6.15-7.95c-13.95-8.11-27.75-16.48-41.57-24.8
		c-1.01-0.61-2.72-0.74-2.38-3.56C978.02,276.69,997.5,283.91,1013.88,297.65z M123.48,384.11c0-0.2,0-0.4,0-0.61
		c6.66,0,13.32,0.14,19.98-0.03c17.98-0.46,35.96-1.12,53.95-1.53c3.99-0.09,5.6-1.42,5.58-5.59c-0.06-10.41-0.48-10.98-11.03-10.71
		c-1.5,0.04-3,0.11-4.49,0.18c-38.94,1.59-77.89,3.2-116.84,4.65c-1.35,0.05-4.59,2.02-4.34-1.79c0.16-2.48-0.78-5.9,3.77-6.23
		c4.63-0.34,9.2-1.34,13.81-1.97c36.28-4.99,72.55-9.98,108.83-14.94c4.52-0.62,7.32-3.08,7.7-7.57c1.7-20.58,3.26-41.17,4.82-61.76
		c0.27-3.58-1.33-5.59-5.1-5.92c-25.22-2.18-50.43-4.35-75.64-6.65c-29.52-2.69-59.02-5.54-88.53-8.25
		c-2.76-0.25-4.47-1.17-5.54-3.97c-3.68-9.63-7.79-19.09-11.42-28.73c-1.32-3.5-3.47-4.98-7-5.19c-9.64-0.6-19.27-1.37-28.91-1.9
		c-11.6-0.64-11.55-0.56-13.57,10.95c-0.72,4.08,0.76,5.78,4.87,6.15c8.12,0.72,16.19,2.01,24.31,2.62c3.86,0.29,5.28,2.2,6.5,5.51
		c13.07,35.45,26.2,70.88,39.51,106.25c2.42,6.42,3.43,12.73,2.18,19.49c-0.76,4.09-1.15,8.24-1.68,12.37
		c-0.9,7.12-0.21,7.98,6.89,7.73C75.88,385.85,99.68,384.97,123.48,384.11z M776.89,160c-0.55-2.31-2.54-2.02-3.95-2.48
		c-35.03-11.35-71.23-16.87-107.66-20.69c-40.29-4.21-80.74-5.36-121.27-4.45c-44.34,0.99-88.46,4.43-132.35,10.63
		c-50.84,7.18-100.81,18.27-149.69,34.18c-3.69,1.2-4.89,2.78-5.16,6.47c-0.2,2.76,0.84,6.95-2.18,8.06
		c-3.62,1.34-7.92,0.96-11.62-1.08c-1.3-0.72-2.64-1.52-3.67-2.56c-3.2-3.25-5.59-2.15-8.14,0.95
		c-8.36,10.18-17.03,20.17-26.88,28.86c-5.92,5.22-7.25,10.39-4.59,17.47c0.59-0.28,1.21-0.5,1.75-0.83
		c30.72-18.94,63.79-32.66,97.92-43.96c74.16-24.55,150.82-35.76,228.35-41.89c35.05-2.77,70.2-3.43,105.38-2.51
		c35,0.91,69.88,3.07,104.55,8.1C750.7,156.14,763.71,158.07,776.89,160z M15.83,313.99c-1.74,3.19-3.59,6.32-5.18,9.59
		c-1.38,2.83-2.73,5.73-3.61,8.74c-8.94,30.87,1.08,56.34,23.04,77.96c21.27,20.96,47.84,32.89,75.66,42.14
		c52.74,17.54,107.19,26.46,162.43,30.95c62.38,5.07,124.78,5.35,187.17,0.24c5.8-0.47,11.58-1.17,15.71-1.59
		c-2.51-0.79-6.78-0.42-11.03-0.37c-64.94,0.74-129.49-3.86-193.46-15.2c-59.52-10.55-117.58-26.04-171.96-53.25
		c-2.2-1.1-2.99-0.65-4.4,0.97c-6.67,7.6-18.04,9.95-26.78,5.74c-8.69-4.19-12.68-12.58-10.26-23.56c0.94-4.28-0.23-4.77-3.91-5.01
		c-5.61-0.37-9.34-3.44-8.69-7.65c0.86-5.57-1.84-9-5.02-12.79C21.83,354.54,14.8,335.88,15.83,313.99z M625.51,359.56
		c0-0.02,0-0.03,0-0.05c3.66,0,7.33-0.05,10.99,0.02c3.02,0.05,4.35-1.13,4.73-4.34c1.45-12.3,3.34-24.55,4.79-36.85
		c0.39-3.31,1.44-4.55,4.88-4.37c3.63,0.19,7.32-0.26,10.96-0.58c28.72-2.58,45.51-17.62,49.66-44.46
		c3.77-24.31-5.24-39.63-27.37-44.58c-17.39-3.89-35.15-1.61-52.76-1.1c-2.31,0.07-2.47,1.62-2.73,3.37
		c-1.83,12.5-3.86,24.96-5.57,37.48c-3.69,27.04-7.15,54.11-10.85,81.14c-1.96,14.36-2.1,14.34,12.26,14.33
		C624.84,359.55,625.17,359.56,625.51,359.56z M256.12,361.49c6.06,0.23,11.99-0.75,17.81-2.15c13.27-3.19,24.45-9.63,31.53-21.77
		c3.11-5.34,3.99-11.26,5.07-17.39c2.2-12.5-0.09-22.82-9.16-31.8c-5.82-5.76-12.92-9.29-20.07-12.85
		c-3.87-1.92-7.88-3.64-11.17-6.53c-6.03-5.3-5.52-13.21,1.13-17.72c3.69-2.5,7.86-3.47,12.26-3.73c8.67-0.5,16.84,1.42,24.8,4.7
		c1.94,0.8,4.37,2.46,5.12-1.75c1.25-7.04,2.86-14.01,4.45-20.99c0.53-2.33,0.12-3.61-2.33-4.52c-17.26-6.35-34.65-7.92-52.25-1.61
		c-17.67,6.33-27.86,19.09-30.12,37.5c-1.95,15.89,5.55,27.41,18.87,35.71c6.99,4.36,14.93,7.02,21.47,12.07
		c8.63,6.66,7.23,18.07-2.67,22.55c-3.53,1.6-7.32,2.17-11.18,2.28c-9.36,0.27-18.06-2.4-26.62-5.83c-5.83-2.34-5.86-2.19-6.93,3.81
		c-1.06,5.89-1.85,11.89-3.64,17.57c-1.26,4.01,0.15,5.43,3.41,6.65C235.64,359.37,245.72,361.27,256.12,361.49z M557.74,295.84
		c-0.4-0.22-0.81-0.45-1.21-0.67c1-7.24,2-14.48,2.99-21.72c2.11-15.51,4.21-31.02,6.3-46.53c0.34-2.56,0.83-5.12-3.15-5.21
		c-6.49-0.14-12.98-0.35-19.47,0.22c-3.28,0.28-4.72,1.62-5.18,5.19c-3.39,26.42-7.06,52.81-10.61,79.21
		c-2.17,16.17-4.23,32.35-6.48,48.51c-0.48,3.46,0.44,4.91,4.08,4.77c4.82-0.19,9.66,0,14.49,0c8.69,0,8.54-0.03,9.55-8.51
		c1.41-11.87,3.07-23.71,4.65-35.78c1.68,0.8,1.8,1.85,2.1,2.77c4.07,12.44,8.25,24.84,12.13,37.33c0.96,3.08,2.34,4.34,5.59,4.24
		c6.66-0.2,13.33-0.04,19.99-0.1c6.06-0.05,6.42-0.54,4.08-6.35c-5.45-13.59-10.69-27.28-16.66-40.64
		c-2.59-5.8-2.12-9.81,2.12-14.59c9.28-10.45,17.98-21.44,26.9-32.21c0.83-1,2.36-1.97,1.88-3.3c-0.67-1.83-2.62-0.88-3.96-0.9
		c-7-0.1-14,0.11-20.99-0.09c-4.32-0.12-6.92,1.63-9.28,5.28C571.24,276.64,564.39,286.18,557.74,295.84z M847.52,301.56
		c0.27-4.84-0.05-9.66-0.77-14.44c-2.18-14.52-9.85-23.55-22.23-26.39c-20.5-4.69-41.19,5.06-50.6,23.9
		c-8.7,17.42-11.31,35.69-6.89,54.69c2.17,9.35,7.42,16.9,16.93,19.94c16.96,5.41,32.78,3.18,45.74-9.75
		C842.86,336.38,846.59,319.4,847.52,301.56z M598.81,461.75c125.56-3.89,247.45-26.27,365.26-72.37
		c-7.18-4.79-9.97-12.02-13.8-18.33c-2.7-4.44-4.86-4.71-9.25-2.6c-45.99,22.12-94.06,38.59-143.06,52.55
		c-52.04,14.82-104.76,26.59-158.26,34.8C626.09,457.88,612.44,459.77,598.81,461.75z M451.91,298.5c0-2.33,0.21-4.68-0.03-6.98
		c-1.38-13.16-6.1-24.19-19.4-29.53c-14.59-5.86-34.19-1.94-44.79,9.64c-17.46,19.07-21.46,41.89-16.69,66.5
		c2.59,13.39,11.69,21.27,25.01,23.03c15.99,2.12,30.06-2.47,40.62-15.26C447.95,332.18,451.79,315.88,451.91,298.5z M256.03,116.62
		c-21.18,8.76-41.63,17.21-62.74,25.94c4.32,3.56,7.81,6.64,11.52,9.43c2.05,1.53,2.13,2.73,0.75,4.8
		c-13.43,20.09-27.72,39.49-44.33,57.11c-13.58,14.41-27.78,28.13-44.38,40.54c8.76,0.89,16.63,1.67,24.5,2.49
		c1.3,0.14,2.2-0.56,3.16-1.23c12.86-8.9,25.84-17.63,37.71-27.88c17.94-15.5,34.47-32.35,49.12-51c1.73-2.2,2.87-2.47,5.04-0.66
		c3.65,3.03,7.56,5.77,12.02,9.12C250.97,162.19,253.44,139.94,256.03,116.62z M349.9,233.11c-1.67,0-3.36,0.21-4.99-0.04
		c-5.15-0.79-7.51,1.28-8.4,6.48c-1.08,6.38-3,12.62-4.64,18.9c-0.41,1.57-0.84,3.06-3.08,3.33c-2.87,0.34-6.71-1.22-8.37,1.57
		c-1.41,2.37-1.01,5.81-1.44,8.77c-0.14,0.99-0.34,1.97-0.52,2.95c-1.09,6.04-1.06,6.3,5.25,5.92c3.59-0.21,4.23,0.87,3.69,4.17
		c-1.18,7.22-2.02,14.51-3,21.77c-1.53,11.38-3.89,22.68-4.3,34.18c-0.41,11.56,4.78,17.63,16.05,19.82
		c5.68,1.1,11.31,0.42,16.87-0.63c8.56-1.63,8.8-2.04,10.16-10.76c0.34-2.14,0.72-4.27,1.17-6.39c1.23-5.77,1.25-5.76-4.67-4.78
		c-8.79,1.46-11.46-1.02-10.55-9.78c0.05-0.5,0.12-0.99,0.18-1.49c1.67-13.19,4.49-26.22,4.95-39.59c0.09-2.48,0.08-6.61,5.29-6.69
		c12.47-0.18,12.47-0.44,14.21-12.96c0.11-0.82,0.15-1.66,0.28-2.48c0.4-2.55-0.65-3.76-3.26-3.74c-3.33,0.03-6.67-0.09-10,0.01
		c-2.23,0.07-2.87-0.59-2.38-2.91c0.86-4.07,1.28-8.22,2-12.32C362.66,233.67,362.68,233.67,349.9,233.11z M356.97,189
		c2.3,0.58,3.83,0.14,5.42-0.14c46.26-8.05,92.7-14.77,139.58-18.07c62.2-4.38,124.41-6.05,186.63-0.18
		c30.72,2.9,61,8.06,90.44,17.55c6.42,2.07,8.23,0.84,8.81-5.91c0.24-2.8-0.6-4.94-3.25-6.1c-2.89-1.26-5.76-2.61-8.75-3.59
		c-20.18-6.64-41.07-9.87-62.1-11.91c-41.32-4.01-82.73-4.84-124.25-3.43c-45.99,1.56-91.69,5.78-137.21,12.35
		C420.34,174.18,388.89,181.11,356.97,189z M514,345.51c0-2.5-0.15-5,0.03-7.49c0.3-4.13-1.52-4.53-4.77-3.06
		c-3.51,1.59-7.16,2.72-11.08,2.6c-7.23-0.23-11.63-3.65-12.72-9.88c-1.64-9.34-1.26-18.89,2.25-28.01
		c5.67-14.77,15.41-19.13,29.93-13.11c3.1,1.29,4,0.59,4.53-2.55c0.91-5.4,2.09-10.78,3.53-16.07c0.82-3.03-0.36-4.36-2.92-5.21
		c-17.34-5.76-34.03-4.84-47.5,8.33c-18.53,18.11-24.04,40.81-18.67,65.86c2.89,13.5,12.23,21.18,25.72,23.83
		c6.81,1.34,13.57,1.01,20.28-0.56C514.22,357.49,514.27,357.39,514,345.51z M744.54,276.25c0.01,0.02-0.22-0.4-0.28-0.83
		c-0.59-4.38,2.61-10.11-0.67-12.83c-3.24-2.69-8.97-0.81-13.6-0.79c-12.78,0.06-10.71-0.67-11.92,10.84
		c-0.09,0.83-0.2,1.65-0.3,2.48c-3.5,26.86-6.97,53.73-10.54,80.58c-0.35,2.61,0.34,3.76,3.02,3.73c4.5-0.04,8.99,0.05,13.49,0.06
		c11.07,0.01,11.19,0.03,12.72-10.7c1.72-12.1,3.89-24.19,4.59-36.36c0.94-16.47,8.99-25.04,24-24.72c2.05,0.04,2.95-0.44,3.38-2.52
		c1.38-6.67,2.87-13.33,4.53-19.94c0.89-3.53-0.5-4.64-3.74-4.28c-6.57,0.73-11.87,3.99-16.65,8.35
		C749.93,271.73,747.16,273.99,744.54,276.25z M105.56,207.22c-6.73,1.4-14.9,2.9-22.96,4.86c-2.97,0.72-4.57,2.96-3.81,6.49
		c2.13,9.9,4.16,19.83,6.03,29.78c0.44,2.34,1.2,3.4,3.73,3.56c7.13,0.46,14.23,1.32,21.36,1.8c4.89,0.33,10.13-5.71,9.25-10.5
		c-1.89-10.29-4.05-20.54-5.7-30.87C112.8,208.2,110.57,207.12,105.56,207.22z M128.98,239.88c9.77-8.32,18.11-16.41,26.41-24.56
		c2.6-2.56,3.87-4.71,2.75-8.53c-1.54-5.25-2.25-10.73-3.34-16.11c-1.19-5.82-2.82-7.12-8.52-6.02c-7.34,1.42-14.63,3.16-21.92,4.81
		c-2.93,0.66-5.02,2.36-4.39,5.59C122.82,209.73,125.84,224.37,128.98,239.88z M190.01,399.74c-0.1-8.92-7.32-15.57-16.71-15.38
		c-9.35,0.18-16.31,7.03-16.24,15.97c0.07,9.26,7.12,15.96,16.8,15.99C183.26,416.34,190.11,409.31,190.01,399.74z M73.17,416.6
		c9.5,0.03,15.06-5.41,15.03-14.68c-0.03-8.45-6.32-14.39-15.17-14.31c-9.61,0.09-15.39,5.79-15.32,15.1
		C57.77,411.1,63.87,416.58,73.17,416.6z M66.6,249.81c0-0.03,0.01-0.06,0.01-0.1c1.33,0.11,2.69,0.08,3.98,0.35
		c3.82,0.79,5.18-0.23,4.04-4.34c-1.12-4-1.63-8.16-2.39-12.25c-1.06-5.67-2.73-6.95-8.53-5.83c-7.03,1.36-13.99,3-20.99,4.5
		c-4.08,0.87-5.54,3.29-4.49,7.31c0.42,1.61,0.9,3.23,1.06,4.88c0.25,2.51,1.55,3.16,3.94,3.34
		C51.03,248.23,58.81,249.07,66.6,249.81z M193.5,228.36c-10.3,8.15-19.86,15.83-29.58,23.31c-1.85,1.42-1.81,3.01-1.62,4.79
		c0.2,1.89,1.86,1.57,3.11,1.67c9.92,0.82,19.85,1.57,29.77,2.42c2.45,0.21,3.36-0.64,2.95-3.1
		C196.59,248,195.12,238.53,193.5,228.36z"/>
	<path class="st1" d="M1013.88,297.65c-16.37-13.75-35.85-20.96-55.4-28.81c-0.33,2.82,1.38,2.95,2.38,3.56
		c13.82,8.32,27.62,16.69,41.57,24.8c3.29,1.91,4.8,4.92,6.15,7.95c1.72,3.88-0.34,8.36-4.39,10.46c-5.76,2.97-11.52,6-17.48,8.53
		c-2.79,1.18-2.6,2.01-1.09,4.1c5.35,7.43,10.53,14.98,15.79,22.48c2.24,3.2,3.98,6.55,3.58,10.64c-0.32,3.29-1.49,6.01-4.37,8
		c-6.17,4.25-12.18,8.73-18.32,13.01c-7.28,5.07-14.25,3.6-19.2-3.84c-5.44-8.17-10.94-16.3-16.78-25
		c-4.08,4.01-7.57,8.45-12.5,11.22c-2.62,1.47-5.15,3.15-8.1,3.77c-6.92,1.47-12.6-2.87-12.76-10.29c-0.1-4.77-0.92-5.42-5.49-3.44
		c-44.14,19.1-88.98,36.18-136.19,46.23c-4.75,1.01-9.51,1.92-14.15,3.57c15.14-0.56,29.98-3.15,44.75-6.2
		c15-3.09,29.96-6.38,44.65-10.71c14.63-4.32,29.19-8.86,44.24-12.36c-2.37,1.08-4.72,2.22-7.11,3.24
		c-40.61,17.34-82.42,31.15-124.94,42.94c-49.19,13.64-99.33,22.25-149.81,29.21c-58.46,8.06-117.19,12.94-176.15,14.74
		c-37.66,1.15-75.32,0.4-112.85-3.14c-52.53-4.96-103.44-16.56-151.61-38.73c-1.14-0.53-2.31-1-3.77-1.63
		c2.31-0.95,4.37-0.4,6.4-0.29c19.19,1.07,29.56-12.74,23.14-30.8c-0.22-0.62-0.42-1.25-0.64-1.9c11.21-2.3,21.82,1.25,32.53,2.92
		c28.81,4.5,57.75,7.8,86.85,9.59c44.09,2.71,88.23,3.8,132.38,2.76c49.3-1.15,98.52-3.91,147.64-8.36
		c39.97-3.62,79.88-7.83,119.62-13.48c19.78-2.81,39.53-5.87,59.18-9.43c6-1.09,11.18,0.88,16.67,1.74
		c29.92,4.72,57.47-10.87,68.38-39.03c6.39-16.51,8.11-33.58,5.28-51.06c-3.58-22.1-21.09-37.9-43.51-39.13
		c-5.8-0.32-11.66,0-17.48,0.27c-2.87,0.13-4.15-0.41-4.12-3.71c0.15-19.16,0.11-38.32,0.04-57.48c-0.01-2.29,0.66-3.58,2.76-4.65
		c9.93-5.05,19.81-10.23,29.64-15.49c2.79-1.49,5.43-1.94,8.57-1.15c5.48,1.38,11.13,2.09,16.59,3.55c3.69,0.99,4.34-0.45,4.3-3.6
		c-0.13-10.16-0.04-20.33-0.26-30.49c-0.06-2.89,0.88-4.43,3.44-5.8c11.01-5.87,21.92-11.93,32.79-18.07c2-1.13,3.47-1.07,5.42,0.06
		c11.22,6.52,22.46,13,33.82,19.25c2.34,1.29,2.77,2.78,2.76,5.13c-0.05,16.99,0.12,33.99-0.05,50.98c-0.04,4.07,0.8,4.75,4.68,3.34
		c10.48-3.8,21.12-7.13,31.66-10.74c2.32-0.79,4.16-0.67,6.48,0.5c12.76,6.45,25.62,12.7,38.54,18.81c3.1,1.47,4.36,3.17,4.27,6.77
		c-0.62,24.48-1,48.97-1.41,73.46C1020.75,284.41,1017.57,291.28,1013.88,297.65z M955.43,267.92c-0.7-0.31-1.7-1.08-2.12-0.35
		c-0.64,1.11,0.77,0.95,1.33,1.31c1.01,0.6,2.46,2.18,3.12,0.92C958.67,268.06,956.3,268.51,955.43,267.92z M879.24,231.11
		c-0.13,0.07-0.27,0.14-0.4,0.21c0.14-0.07,0.28-0.13,0.42-0.2c-0.65,0.44-0.82,1.13-0.39,1.69c6.36,8.33,15,13.44,24.5,17.4
		c-0.79-3.34-2.97-5.49-5.36-7.44C892.27,238.06,886.19,233.87,879.24,231.11z M995.73,354.79c-9.61-13.33-19.2-26.65-28.99-40.23
		c10.23-3.77,20.27-7.48,31.44-11.6c-27.83-16.13-54.6-32.05-83.39-46.06c3.83,31.69,7.56,62.52,11.33,93.76
		c5.07-2.73,7.76-6.99,10.87-10.81c3.11-3.83,6.2-7.67,9.52-11.77c1.79,2.25,3.4,4.15,4.86,6.15c7.29,9.91,14.63,19.78,21.75,29.82
		c1.97,2.78,3.33,3.75,6.5,1.36C984.67,361.61,990.15,358.43,995.73,354.79z M660.43,410.97c2.87,5.63,5.39,10.2,7.54,14.94
		c1.74,3.83,4.52,2.14,7.2,1.96c2.73-0.18,3.57-1.53,3.77-4.1c0.54-6.95,1.43-13.88,1.94-20.84c0.1-1.39,1.8-4.22-1.33-4.13
		c-2.5,0.07-6.24-0.75-6.27,4.14c-0.02,4.78-0.71,9.55-1.19,15.26c-2.75-5.34-5.12-9.82-7.36-14.37c-2.01-4.08-5.45-1.92-8.34-2
		c-3.07-0.08-2.64,2.46-2.83,4.29c-0.7,6.77-1.35,13.56-1.84,20.35c-0.11,1.46-1.98,4.14,1.09,4.25c2.53,0.09,6.27,0.92,6.31-4.06
		C659.16,421.8,659.9,416.93,660.43,410.97z M372.99,436.21c-2.23-6.02-4.2-10.93-5.86-15.95c-1.55-4.68-5.41-2.78-8.4-3.19
		c-3.25-0.44-2.56,2.46-2.91,4.16c-1.36,6.68-2.59,13.38-3.73,20.1c-0.28,1.65-1.89,4.21,1.88,4.19c2.34-0.01,4.93,1.07,5.37-3.01
		c0.56-5.25,1.79-10.43,2.81-16.04c2.15,5.95,4.23,11.36,6.06,16.86c1.46,4.39,5.01,2.84,7.93,3.07c3.16,0.25,2.59-2.37,2.95-4.17
		c1.33-6.69,2.7-13.37,3.81-20.09c0.24-1.48,2.29-4.17-1.56-4.42c-2.78-0.18-5.69-0.91-6.11,3.46
		C374.78,425.81,373.88,430.38,372.99,436.21z M526.6,434.77c-1.94-6.69-4.4-11.75-6.72-16.87c-1.81-3.98-5.13-1.79-7.83-2.07
		c-2.9-0.3-2.94,1.84-3.2,3.9c-0.88,6.93-1.97,13.83-2.74,20.76c-0.15,1.35-1.94,4.01,1.5,4.05c2.43,0.03,5.49,0.96,5.82-3.31
		c0.39-5.02,1.19-10.02,1.91-15.87c2.59,5.75,4.92,10.63,7,15.62c1.79,4.28,5.33,2.17,8.18,2.49c3.21,0.37,2.73-2.38,2.98-4.09
		c1.01-6.91,1.88-13.84,2.62-20.78c0.15-1.37,2.16-4.06-1.43-3.93c-2.23,0.09-5.56-1.58-5.92,3.03
		C528.36,423.02,527.45,428.27,526.6,434.77z M641.12,420.98c1.59-4.34-0.66-5.34-4.94-4.49c-1.62,0.32-3.29,0.45-4.94,0.6
		c-2.38,0.23-2.17,2-2.32,3.66c-0.15,1.67,0.32,2.57,2.16,2.34c1.11-0.14,1.98,0.08,1.91,1.51c-0.07,1.32,0.03,2.61-1.47,3.4
		c-3.22,1.71-8.03,0.06-9.34-3.3c-1.82-4.65,0.27-10,4.77-12.3c3.54-1.81,7.3-2.25,11.16-1.65c2.13,0.33,2.67-0.74,2.72-2.47
		c0.04-1.36,0.92-2.83-1.3-3.64c-9.77-3.59-24.5,4.62-26.41,14.83c-1.07,5.69,0.63,11.04,4.66,13.26
		c6.77,3.73,13.83,1.93,20.27-0.53c4.01-1.53,2.08-6.7,2.98-10.19C641.07,421.84,641.06,421.67,641.12,420.98z M484.21,445.52
		c2.65,0,5.32-0.18,7.96,0.04c3.37,0.28,3.27-2.31,3.51-4.23c0.39-3.05-2.16-1.61-3.43-1.73c-2.14-0.2-4.31,0.05-6.47,0
		c-1.17-0.02-2.93,0.59-2.64-1.71c0.2-1.6,0.07-3.47,2.53-3.51c2.16-0.04,4.32-0.36,6.47-0.23c3.38,0.2,3.12-2.29,3.32-4.31
		c0.31-3.17-2.16-1.58-3.46-1.77c-1.3-0.18-2.65,0.1-3.98,0.04c-1.35-0.06-3.15,0.6-3.08-1.96c0.06-2.1,0.92-2.9,3.01-2.92
		c2.65-0.02,5.3-0.41,7.95-0.48c3.22-0.08,2.41-2.81,2.7-4.41c0.48-2.67-1.89-1.67-3.08-1.64c-4.81,0.13-9.62,0.65-14.43,0.64
		c-2.58-0.01-3.49,1.02-3.79,3.34c-0.69,5.26-1.6,10.5-2.26,15.77C473.77,446.56,473.82,446.56,484.21,445.52z M439.57,418.18
		c0,0.04,0,0.09,0,0.13c-2.66,0-5.33,0.09-7.98-0.03c-2.18-0.1-3.28,0.54-3.63,2.92c-1.11,7.56-2.46,15.08-3.74,22.62
		c-0.26,1.56-0.56,3.17,1.76,3.15c5.82-0.04,11.64-0.07,17.45-0.29c2.63-0.1,2.23-2.55,2.5-4.18c0.38-2.26-1.53-1.64-2.7-1.69
		c-2.16-0.09-4.34,0.14-6.48-0.08c-1.3-0.13-3.68,1.24-3.49-1.87c0.14-2.39,1.16-3.6,3.76-3.37c1.98,0.17,3.99-0.09,5.98-0.04
		c3.19,0.08,2.6-2.47,2.88-4.23c0.43-2.73-1.82-1.63-3.01-1.79c-1.47-0.19-3,0.03-4.48-0.11c-1.29-0.12-3.29,0.65-3.04-1.95
		c0.17-1.83,0.7-3.14,2.99-3.03c2.49,0.13,5.01-0.24,7.48-0.02c3.37,0.31,3.27-2.15,3.59-4.17c0.5-3.21-2.07-1.79-3.35-1.92
		C443.91,418.02,441.73,418.18,439.57,418.18z M690.95,416.87c0.03,0,0.06,0,0.09,0.01c-0.18,2.16-0.3,4.32-0.55,6.46
		c-0.17,1.51,0.33,2.25,1.9,1.99c5.91-0.98,11.82-1.89,17.7-3.01c2.61-0.5,1.81-2.91,1.83-4.54c0.03-2.32-1.89-1.24-2.97-1.16
		c-2.32,0.17-4.61,0.66-6.92,0.91c-1.21,0.13-2.83,0.71-2.77-1.55c0.04-1.48-0.22-3.11,1.9-3.46c2.3-0.38,4.58-0.88,6.89-1.15
		c3.28-0.38,2.88-2.97,2.76-4.93c-0.16-2.74-2.27-0.82-3.46-0.92c-1.3-0.11-2.64,0.4-3.96,0.4c-1.2,0-3.11,1.76-3.4-1.04
		c-0.2-1.99,0.18-3.52,2.77-3.71c2.47-0.18,4.89-1,7.36-1.26c3.32-0.35,2.91-2.84,2.74-4.83c-0.21-2.54-2.27-1.22-3.5-1.05
		c-4.61,0.64-9.18,1.61-13.8,2.13c-2.54,0.29-3.32,1.4-3.44,3.8C691.87,405.59,691.36,411.23,690.95,416.87z M334.31,415.33
		c0,0.02,0,0.04,0,0.07c-1.99-0.12-3.99-0.19-5.98-0.39c-1.93-0.2-2.97,0.24-3.39,2.48c-1.42,7.69-3.08,15.33-4.72,22.97
		c-0.4,1.86-0.01,2.84,2.05,2.96c5.48,0.32,10.96,0.72,16.45,1.1c3.07,0.21,2.84-2.39,3.18-4.1c0.52-2.61-1.8-1.71-3.04-1.89
		c-1.97-0.28-4.01-0.15-5.96-0.53c-1.28-0.25-3.62,0.81-3.32-2.27c0.26-2.66,1.56-3.32,3.94-3.08c1.98,0.19,3.99,0.16,5.99,0.23
		c2.58,0.09,2.18-1.95,2.52-3.48c0.48-2.16-1.06-1.95-2.37-2.08c-1.66-0.16-3.31-0.39-4.96-0.59c-1.43-0.17-3.07,0.15-2.81-2.32
		c0.22-2.09,1.01-2.99,3.14-2.79c2.32,0.22,4.68,0.13,6.97,0.47c3.15,0.47,3.58-1.66,4.02-3.83c0.61-3.01-1.98-2.11-3.24-2.31
		C339.99,415.52,337.13,415.51,334.31,415.33z M297.95,433.68c-0.43-6.56-0.97-12.29-1.14-18.04c-0.15-5.22-4.19-4.11-6.89-4.07
		c-3.67,0.05-1.21,2.92-1.08,4.32c0.62,6.96,1.53,13.89,2.41,20.82c0.22,1.7-0.03,3.97,2.72,3.9c2.74-0.07,5.83,2.38,8.09-1.29
		c5.04-8.19,10.19-16.32,15.31-24.5c-7.65-2.25-7.69-2.27-11.41,4.32C303.37,423.71,300.89,428.33,297.95,433.68z M864.07,212.68
		c0-0.02,0-0.04,0.01-0.06c0.5,0.04,1.04,0.22,1.49,0.08c1.79-0.54,5.35,2.6,5.13-1.87c-0.16-3.26,2.83-8.3-3.97-9.09
		c-6.41-0.75-12.75-2.07-19.14-3.02c-8.64-1.3-8.54-1.25-8.58,7.8c-0.01,2.82,0.47,4.08,3.71,4.24
		C849.85,211.11,856.95,212,864.07,212.68z M855.03,230.33c0,0.1,0,0.19,0,0.29c4,0,8-0.07,11.99,0.03c2.3,0.06,4.68,0.27,3.87-3.12
		c-0.67-2.82,2.57-7.48-3.67-7.86c-6.15-0.38-12.28-1.01-18.41-1.61c-12.13-1.19-9.22-2.86-9.74,8.95
		c-0.12,2.77,0.99,3.43,3.47,3.35C846.69,230.24,850.86,230.33,855.03,230.33z M839.06,185.15c-1.51,4.73,1.43,6,6.25,6.47
		c7.1,0.7,14.12,2.12,21.2,3.05c1.42,0.19,4.42,2.07,4.05-1.16c-0.34-2.97,3.19-7.59-2.65-8.94c-7.59-1.75-15.21-3.41-22.81-5.1
		C839.07,178.13,839.07,178.14,839.06,185.15z M405.85,418.39c0-0.06,0-0.13,0-0.19c-2.83,0-5.66,0.1-8.48-0.03
		c-2.85-0.13-5.45-0.21-5.36,3.78c0.09,3.79,3.07,2.31,4.7,2.28c3.14-0.06,4.06,0.81,3.38,3.98c-1.02,4.7-1.73,9.47-2.35,14.24
		c-0.2,1.55-2.4,4.35,1.4,4.38c2.53,0.02,6.3,1.9,6.8-3.19c0.41-4.12,1.67-8.18,1.85-12.3c0.23-5.24,1.93-8.02,7.69-6.94
		c3.38,0.64,3.14-2.22,3.41-4.2c0.37-2.69-1.89-1.7-3.08-1.75C412.51,418.3,409.18,418.39,405.85,418.39z M577.34,433.58
		c-6.44,0.25-6.42,0.26-5.61-6.37c0.48-3.95,1-7.9,1.26-11.87c0.08-1.28,1.64-3.89-1.41-3.61c-2.34,0.22-6.03-1.6-6.55,3.02
		c-0.88,7.74-1.83,15.48-2.81,23.21c-0.22,1.73-0.2,2.99,2.08,2.78c5.62-0.51,11.25-0.89,16.85-1.5c2.94-0.32,2.22-3.12,2.27-4.77
		c0.06-1.99-1.98-0.88-3.1-1.01C579.34,433.34,578.33,433.53,577.34,433.58z M943.02,257.11c2.06,0.76,3.59,0.13,5.13-0.21
		c11.44-2.57,22.03-7.41,32.63-12.25c0.99-0.45,2.36-2.95,3.45,0.48c0.77,2.41,4.38,3.23,5.86,2.15c2.12-1.56,1.72-5.15,0.69-7.31
		c-0.99-2.08-4.45-3.91-6.24-2.31c-3.21,2.86-7.18,3-10.71,4.49C963.38,246.53,952.22,249.39,943.02,257.11z M603.87,412.94
		c0.26-2.92,0.69-4.98-2.05-4.4c-2.22,0.47-5.63-1.36-6.06,3.07c-0.71,7.25-1.79,14.46-2.41,21.71c-0.13,1.49-2.1,4.61,1.37,4.59
		c2.41-0.01,6.29,1.28,6.74-3.54C602.18,426.8,603.15,419.25,603.87,412.94z M870.58,310.22c12.51-7.52,23.6-16.61,31.77-28.91
		C889.09,288,878.53,297.67,870.58,310.22z M910.63,204.46c-0.98,14,1.24,27.37,6.86,40.12C918.8,230.56,917.56,217,910.63,204.46z
		 M955.96,216.12c-11.11,7.74-19.51,17.65-23.96,30.63C942.28,238.37,950.13,228.09,955.96,216.12z M899.78,264.89
		c-11.46-2.39-22.8-1.16-34.15,0.23C877.04,269.89,888.46,269.76,899.78,264.89z M924.09,143.92c-0.5-1.67,0.51-3.54-1-4.83
		c-2.51-2.13-5.74-4.8-8.51-3.84c-1.95,0.67-1.24,5.33-0.56,7.82c1.04,3.79,5.2,4.47,8.41,4.88
		C925.3,148.31,923.2,145.17,924.09,143.92z M914.47,170.58c0.74,2.11-1.1,4.97,2.27,5.97c2.3,0.68,5.23,2.83,6.78,1.27
		c1.25-1.26,0.8-4.77,0.28-7.1c-0.84-3.79-4.66-4.99-7.61-5.1C912.82,165.49,915.58,169.04,914.47,170.58z M923.88,159.33
		c0.01-4.69-4.15-9.43-7.83-9.03c-2.44,0.26-1.31,2.28-1.34,3.5c-0.16,6.39,2.41,9.62,7.59,9.4
		C925.44,163.06,923.11,160.37,923.88,159.33z M911.48,153.95c0-0.96-0.09-1.63,0.01-2.28c0.78-4.7-2.8-6.09-5.91-6.09
		c-3.57,0-1.22,3.53-1.77,5.42c-0.22,0.76-0.02,1.65-0.01,2.47c0.08,4.21,4.02,4.7,6.35,4.86
		C913.29,158.56,910.62,155.19,911.48,153.95z M903.69,166.03c0.01,5.2,2.45,8.43,6.11,7.67c3.22-0.67,1.24-3.77,1.65-5.74
		c0.94-4.46-1.47-6.48-5.58-6.58C901.5,161.28,904.9,164.92,903.69,166.03z M903.76,133.83c0,1.03,0.1,1.71-0.02,2.35
		c-0.83,4.72,3.06,6.1,5.9,6.19c3.32,0.1,1.13-3.53,1.7-5.43c0.23-0.76,0.01-1.64,0.02-2.47c0.04-4.04-3.7-4.41-5.92-4.69
		C902.19,129.36,904.58,132.74,903.76,133.83z M993.84,245.54c-1.52,5.56,3.26,5.05,5.93,5.82c2.26,0.65,1.5-1.9,1.57-3.12
		c0.21-4.16-2.14-7.08-5.63-6.81C992.94,241.66,994.26,244.16,993.84,245.54z M991.2,203.13c0.02-3.93-2.32-6.49-5.83-6.45
		c-2.95,0.03-1.4,2.36-1.67,3.68c-0.93,4.53,2.48,5.94,5.67,6.44C992.37,207.28,990.56,204.22,991.2,203.13z M983.74,227.33
		c-0.01,3.95,2.5,6.68,5.85,6.34c2.8-0.29,1.41-2.57,1.49-3.92c0.19-3.29-2.98-6.63-5.9-6.25
		C982.46,223.85,984.32,226.19,983.74,227.33z M1001.18,211.79c0-2.1-0.09-3.74,0.02-5.37c0.26-4.18-3.54-4.69-5.72-4.76
		c-2.97-0.09-1.24,3.1-1.29,4.74C994.06,210.89,997.97,210.49,1001.18,211.79z M991.14,216.82c0.01-4.35-1.79-6.46-5.53-6.57
		c-2.98-0.09-1.53,2.22-1.78,3.52c-0.88,4.54,2.61,5.82,5.71,6.42C992.34,220.74,990.57,217.88,991.14,216.82z M1001.35,221.1
		c0.02-3.39-3.06-6.65-6.04-6.32c-2.68,0.3-1.24,2.53-1.53,3.91c-1.02,4.91,3.01,5.41,5.96,5.91
		C1002.45,225.07,1000.79,222.21,1001.35,221.1z M994.4,230.64c-1.07,5.26,1.94,6.93,5.35,7.1c2.71,0.13,1.22-2.74,1.47-4.25
		c0.79-4.68-3.42-4.91-6-5.53C993.22,227.48,994.58,230.23,994.4,230.64z M1010.83,226.58c1.55-5.61-2.38-6.27-5.29-6.98
		c-2.4-0.59-1.24,1.97-1.55,3.17c-1.23,4.75,3.1,5.57,5.63,6.49C1012.12,230.16,1010.6,227.03,1010.83,226.58z M1004.55,248.63
		c-1.3,5.47,2.12,6.5,5.16,6.68c2.75,0.16,1.32-2.73,1.61-4.24c0.84-4.37-2.9-4.89-5.49-5.27
		C1003.29,245.42,1004.73,248.22,1004.55,248.63z M1011.04,212c1.24-4.94-2.16-5.57-4.75-6.01c-2.98-0.51-1.78,2.31-2.06,3.81
		c-0.72,3.86,1.72,5.4,4.88,5.74C1012.77,215.93,1010.57,212.72,1011.04,212z M1011.23,238.68c0.09-3.86-1.25-5.23-4.75-5.54
		c-2.99-0.26-2,1.88-2.23,3.31c-0.65,3.95,2.28,4.86,5.03,5.41C1012.3,242.47,1010.73,239.76,1011.23,238.68z"/>
	<path class="st1" d="M123.48,384.11c-23.8,0.86-47.61,1.74-71.41,2.55c-7.09,0.24-7.79-0.62-6.89-7.73
		c0.52-4.13,0.92-8.28,1.68-12.37c1.25-6.75,0.24-13.07-2.18-19.49c-13.31-35.36-26.44-70.79-39.51-106.25
		c-1.22-3.31-2.64-5.22-6.5-5.51c-8.12-0.61-16.19-1.9-24.31-2.62c-4.11-0.36-5.58-2.07-4.87-6.15c2.02-11.51,1.96-11.6,13.57-10.95
		c9.64,0.53,19.27,1.31,28.91,1.9c3.53,0.22,5.68,1.69,7,5.19c3.63,9.64,7.74,19.11,11.42,28.73c1.07,2.8,2.78,3.71,5.54,3.97
		c29.51,2.71,59.02,5.55,88.53,8.25c25.21,2.3,50.42,4.48,75.64,6.65c3.77,0.33,5.38,2.34,5.1,5.92
		c-1.57,20.59-3.12,41.18-4.82,61.76c-0.37,4.49-3.18,6.96-7.7,7.57c-36.28,4.96-72.56,9.94-108.83,14.94
		c-4.61,0.63-9.18,1.63-13.81,1.97c-4.55,0.33-3.6,3.75-3.77,6.23c-0.25,3.81,2.99,1.84,4.34,1.79
		c38.95-1.44,77.89-3.06,116.84-4.65c1.5-0.06,3-0.14,4.49-0.18c10.55-0.28,10.98,0.3,11.03,10.71c0.02,4.18-1.58,5.5-5.58,5.59
		c-17.99,0.4-35.96,1.07-53.95,1.53c-6.66,0.17-13.32,0.03-19.98,0.03C123.48,383.71,123.48,383.91,123.48,384.11z M38.78,270.06
		c2.33,6.32,4.43,11.88,6.41,17.48c0.66,1.87,1.86,2.55,3.73,2.55c6.6-0.02,13.19-0.01,20.12-0.01c-1.66-5.04-3.38-10-4.91-15.01
		c-0.68-2.23-1.93-3.17-4.24-3.32C53.11,271.29,46.35,270.67,38.78,270.06z M71.85,272.89c1.86,5.86,3.49,10.89,5.03,15.95
		c0.44,1.45,0.57,2.74,2.71,2.69c6.77-0.14,13.55-0.05,20.73-0.05c-1.13-5.04-2.24-9.55-3.1-14.1c-0.39-2.07-1.44-2.66-3.38-2.79
		C86.74,274.12,79.64,273.51,71.85,272.89z M49.58,297.87c2.11,5.7,4.2,11.26,6.19,16.85c0.48,1.34,1.29,1.78,2.6,1.74
		c5.49-0.16,10.97-0.31,16.46-0.43c1.77-0.04,2.29-0.52,1.6-2.42c-1.59-4.37-2.99-8.81-4.26-13.28c-0.5-1.75-1.35-2.49-3.11-2.48
		C62.77,297.89,56.48,297.87,49.58,297.87z M69.29,323.31c-2.83,0.41-7.75-1.33-9.28,0.98c-1.5,2.25,1.82,6.22,2.82,9.49
		c0.1,0.32,0.2,0.63,0.32,0.94c2.85,7.51,2.85,7.51,10.38,6.75c0.66-0.07,1.32-0.11,1.98-0.18c9.05-0.94,9.05-0.94,6.25-9.66
		C78.98,322.99,78.98,322.99,69.29,323.31z M79.38,298.62c2.27,4.37,3.18,9.08,4.58,13.62c0.69,2.25,1.71,3.27,4.18,3.09
		c4.8-0.36,9.61-0.48,14.42-0.68c1.44-0.06,2.63-0.07,2.1-2.18c-0.96-3.86-1.81-7.75-2.48-11.66c-0.36-2.07-1.62-2.19-3.21-2.18
		C92.52,298.63,86.07,298.62,79.38,298.62z M119.65,292.11c11.27,0.47,11.17,0.49,9.59-10.84c-0.36-2.6-1.06-3.75-3.85-3.87
		c-5.14-0.21-10.29-0.63-15.39-1.36c-3.68-0.53-4.92-0.05-4.02,4.16C108.39,291.58,108.19,291.63,119.65,292.11z M87.05,322.45
		c0.7,2.48,1.28,4.52,1.86,6.56c3.04,10.67,3.04,10.68,14.09,9.23c2.13-0.28,5.91-0.35,6.08-1.14c0.99-4.57-1.69-8.81-2.13-13.34
		c-0.21-2.17-1.6-2.14-3.19-2.07C98.31,321.96,92.85,322.19,87.05,322.45z M148.79,293.15c10.92,0.38,10.82,0.39,10.41-9.43
		c-0.1-2.51-0.85-3.5-3.34-3.66c-5.31-0.34-10.6-0.83-15.89-1.42c-2.58-0.29-2.98,0.68-2.83,3.06
		C137.86,292.76,137.78,292.77,148.79,293.15z M120.7,299.39c0-0.12,0-0.24,0-0.37c-2.81,0-5.63,0.09-8.44-0.03
		c-1.82-0.08-2.43,0.53-1.98,2.31c0.36,1.44,0.6,2.92,0.88,4.38c1.55,8.24,1.55,8.24,9.9,8.03c2.65-0.07,5.32-0.33,7.95-0.11
		c3.39,0.28,4.07-0.84,3.58-4.17c-1.43-9.68-1.26-9.7-10.89-10.03C121.36,299.38,121.03,299.39,120.7,299.39z M125.65,320.44
		c-2.64,0.19-5.28,0.41-7.92,0.55c-2.31,0.12-3.29,0.61-2.82,3.51c1.96,12.13,1.82,12.15,13.95,10.84c0.16-0.02,0.33-0.05,0.49-0.05
		c4.86,0.17,6.32-1.88,5.53-6.81C133.59,320.36,133.9,320.31,125.65,320.44z M177.72,293.73c11.65,0.53,11.53,0.53,11.64-7.45
		c0.03-2.54-0.63-3.62-3.24-3.7c-3.65-0.12-7.29-0.54-10.93-0.86c-8.27-0.73-8.02-0.73-8.26,7.46c-0.11,3.92,1.26,4.98,4.81,4.59
		C173.71,293.56,175.73,293.73,177.72,293.73z M149.33,300.35c-10.83-0.36-10.72-0.38-9.16,9.35c0.42,2.65,1.55,3.19,3.92,3.05
		c3.8-0.22,7.63-0.48,11.41-0.16c3.78,0.32,4.71-0.91,4.55-4.62c-0.34-7.45-0.1-7.46-7.73-7.62
		C151.32,300.34,150.33,300.35,149.33,300.35z M160.37,326.67c-0.19-7.43-0.19-7.43-6.95-7.24c-3.14,0.09-6.28,0.17-9.42,0.31
		c-1.28,0.06-2.97-0.13-2.53,1.99c0.77,3.73-0.63,8.31,1.75,11.05c1.86,2.14,5.87-0.26,8.94-0.25c0.82,0,1.65-0.15,2.47-0.18
		C158.75,332.18,162.06,331.31,160.37,326.67z M177.88,311.98c10.18-0.31,10-0.32,10.49-7.47c0.19-2.78-0.67-3.54-3.19-3.52
		c-4.16,0.03-8.35,0.17-12.48-0.23c-4.26-0.41-5.69,0.7-5.58,5.32c0.12,4.78,1.41,6.77,6.27,5.94
		C174.85,311.77,176.38,311.98,177.88,311.98z M177.61,318.6c0,0.06,0,0.12,0,0.18c-2.16,0-4.34,0.18-6.47-0.04
		c-3.26-0.34-4.13,1.15-3.66,4.06c0.18,1.14,0.32,2.33,0.22,3.48c-0.28,3.38,0.9,4.76,4.49,4.12c3.59-0.63,7.25-0.89,10.9-1.13
		c2.13-0.14,3.11-0.81,3.49-3.14c1.24-7.66,1.35-7.65-6.47-7.54C179.27,318.61,178.44,318.6,177.61,318.6z"/>
	<path class="st1" d="M776.89,160c-13.17-1.93-26.19-3.86-39.21-5.75c-34.67-5.03-69.56-7.18-104.55-8.1
		c-35.17-0.92-70.33-0.27-105.38,2.51c-77.53,6.14-154.18,17.35-228.35,41.89c-34.13,11.3-67.21,25.02-97.92,43.96
		c-0.54,0.33-1.15,0.55-1.75,0.83c-2.66-7.08-1.33-12.25,4.59-17.47c9.85-8.68,18.52-18.68,26.88-28.86c2.55-3.1,4.94-4.2,8.14-0.95
		c1.03,1.05,2.37,1.85,3.67,2.56c3.7,2.04,8,2.41,11.62,1.08c3.02-1.11,1.98-5.3,2.18-8.06c0.27-3.68,1.47-5.27,5.16-6.47
		c48.87-15.91,98.85-27,149.69-34.18c43.89-6.2,88.01-9.63,132.35-10.63c40.53-0.91,80.98,0.24,121.27,4.45
		c36.43,3.81,72.63,9.34,107.66,20.69C774.35,157.98,776.34,157.7,776.89,160z"/>
	<path class="st1" d="M15.83,313.99c-1.03,21.89,5.99,40.56,19.71,56.91c3.18,3.79,5.88,7.22,5.02,12.79
		c-0.65,4.21,3.08,7.28,8.69,7.65c3.68,0.24,4.85,0.73,3.91,5.01c-2.42,10.98,1.57,19.37,10.26,23.56
		c8.74,4.21,20.11,1.86,26.78-5.74c1.42-1.61,2.2-2.07,4.4-0.97c54.38,27.21,112.45,42.7,171.96,53.25
		c63.97,11.34,128.51,15.94,193.46,15.2c4.25-0.05,8.52-0.42,11.03,0.37c-4.12,0.42-9.91,1.11-15.71,1.59
		c-62.4,5.11-124.8,4.82-187.17-0.24c-55.24-4.49-109.69-13.41-162.43-30.95c-27.82-9.25-54.38-21.18-75.66-42.14
		c-21.95-21.63-31.97-47.1-23.04-77.96c0.87-3.01,2.23-5.91,3.61-8.74C12.24,320.31,14.09,317.18,15.83,313.99z"/>
	<path class="st1" d="M625.51,359.56c-0.33,0-0.67,0-1,0c-14.36,0.01-14.22,0.03-12.26-14.33c3.7-27.04,7.16-54.1,10.85-81.14
		c1.71-12.51,3.74-24.98,5.57-37.48c0.26-1.74,0.41-3.3,2.73-3.37c17.61-0.51,35.37-2.79,52.76,1.1
		c22.13,4.95,31.13,20.27,27.37,44.58c-4.16,26.84-20.94,41.88-49.66,44.46c-3.65,0.33-7.33,0.78-10.96,0.58
		c-3.45-0.18-4.49,1.06-4.88,4.37c-1.45,12.3-3.34,24.55-4.79,36.85c-0.38,3.21-1.71,4.39-4.73,4.34
		c-3.66-0.06-7.33-0.02-10.99-0.02C625.51,359.52,625.51,359.54,625.51,359.56z M662.93,246.32c-3.18,0.38-7.3-1.22-7.91,4.61
		c-1.24,11.9-2.87,23.76-4.51,35.62c-0.31,2.25,0.21,2.8,2.4,3.04c16.15,1.77,27.82-8.35,28.31-24.7
		C681.61,251.74,676.23,246.24,662.93,246.32z"/>
	<path class="st2" d="M256.12,361.49c-10.4-0.22-20.47-2.12-30.23-5.79c-3.26-1.22-4.67-2.65-3.41-6.65
		c1.78-5.68,2.58-11.68,3.64-17.57c1.08-6,1.1-6.15,6.93-3.81c8.56,3.43,17.26,6.1,26.62,5.83c3.87-0.11,7.65-0.68,11.18-2.28
		c9.9-4.49,11.3-15.89,2.67-22.55c-6.55-5.05-14.48-7.71-21.47-12.07c-13.32-8.3-20.82-19.82-18.87-35.71
		c2.26-18.41,12.44-31.17,30.12-37.5c17.61-6.3,34.99-4.74,52.25,1.61c2.45,0.9,2.86,2.19,2.33,4.52
		c-1.59,6.97-3.2,13.95-4.45,20.99c-0.75,4.21-3.17,2.55-5.12,1.75c-7.96-3.27-16.13-5.2-24.8-4.7c-4.4,0.26-8.57,1.22-12.26,3.73
		c-6.65,4.52-7.16,12.43-1.13,17.72c3.29,2.89,7.3,4.61,11.17,6.53c7.15,3.55,14.25,7.09,20.07,12.85
		c9.07,8.97,11.36,19.3,9.16,31.8c-1.08,6.13-1.96,12.05-5.07,17.39c-7.07,12.15-18.26,18.58-31.53,21.77
		C268.11,360.74,262.17,361.72,256.12,361.49z"/>
	<path class="st2" d="M557.74,295.84c6.65-9.67,13.5-19.21,19.86-29.06c2.36-3.65,4.95-5.4,9.28-5.28
		c6.99,0.2,13.99-0.01,20.99,0.09c1.34,0.02,3.29-0.93,3.96,0.9c0.48,1.33-1.05,2.3-1.88,3.3c-8.92,10.77-17.61,21.76-26.9,32.21
		c-4.24,4.77-4.71,8.79-2.12,14.59c5.97,13.36,11.2,27.05,16.66,40.64c2.33,5.81,1.97,6.3-4.08,6.35c-6.66,0.05-13.33-0.1-19.99,0.1
		c-3.25,0.1-4.63-1.16-5.59-4.24c-3.88-12.5-8.05-24.9-12.13-37.33c-0.3-0.93-0.43-1.98-2.1-2.77c-1.58,12.06-3.24,23.91-4.65,35.78
		c-1.01,8.49-0.86,8.51-9.55,8.51c-4.83,0-9.67-0.18-14.49,0c-3.64,0.14-4.57-1.3-4.08-4.77c2.25-16.16,4.3-32.34,6.48-48.51
		c3.55-26.4,7.23-52.79,10.61-79.21c0.46-3.57,1.89-4.91,5.18-5.19c6.49-0.56,12.97-0.36,19.47-0.22c3.98,0.09,3.49,2.65,3.15,5.21
		c-2.09,15.51-4.19,31.02-6.3,46.53c-0.98,7.24-1.99,14.48-2.99,21.72C556.93,295.39,557.33,295.62,557.74,295.84z"/>
	<path class="st1" d="M847.52,301.56c-0.93,17.85-4.66,34.83-17.82,47.95c-12.96,12.92-28.79,15.16-45.74,9.75
		c-9.51-3.04-14.76-10.59-16.93-19.94c-4.42-19-1.8-37.28,6.89-54.69c9.41-18.84,30.1-28.59,50.6-23.9
		c12.38,2.83,20.05,11.87,22.23,26.39C847.47,291.89,847.79,296.71,847.52,301.56z M793.95,323.27c0.07,1.33,0.23,2.65,0.21,3.98
		c-0.06,5,1.58,9.12,6.53,10.96c3.89,1.45,8.27-1.17,11.21-6.28c3.81-6.63,5.06-14.02,6.01-21.43c0.88-6.91,1.9-13.9,0.01-20.79
		c-2.05-7.46-8.5-9.13-14.03-3.76c-3.1,3.01-5.55,6.77-6.4,10.77C795.63,305.44,793.68,314.23,793.95,323.27z"/>
	<path class="st1" d="M598.81,461.75c13.63-1.98,27.28-3.87,40.9-5.96c53.5-8.21,106.21-19.98,158.26-34.8
		c49-13.96,97.07-30.43,143.06-52.55c4.38-2.11,6.55-1.84,9.25,2.6c3.83,6.31,6.62,13.54,13.8,18.33
		C846.26,435.47,724.37,457.86,598.81,461.75z"/>
	<path class="st2" d="M451.91,298.5c-0.12,17.39-3.97,33.68-15.29,47.41c-10.55,12.79-24.62,17.37-40.62,15.26
		c-13.32-1.76-22.41-9.64-25.01-23.03c-4.77-24.61-0.77-47.43,16.69-66.5c10.6-11.58,30.21-15.51,44.79-9.64
		c13.29,5.34,18.02,16.37,19.4,29.53C452.12,293.82,451.91,296.17,451.91,298.5z M423.27,300.71c-0.19-3.11-0.27-5.93-0.57-8.74
		c-0.14-1.3-0.57-2.61-1.05-3.84c-2.17-5.57-7.25-7.04-12.05-3.47c-2.89,2.15-4.71,5.14-5.98,8.44
		c-4.46,11.51-6.26,23.38-4.75,35.69c0.54,4.34,1.77,8.47,6.68,9.41c4.74,0.91,7.75-2.12,10.08-5.84c0.62-0.98,1.14-2.03,1.66-3.06
		C421.9,320.21,422.23,310.26,423.27,300.71z"/>
	<path class="st2" d="M256.03,116.62c-2.59,23.32-5.07,45.56-7.63,68.66c-4.46-3.36-8.37-6.09-12.02-9.12
		c-2.17-1.8-3.31-1.53-5.04,0.66c-14.65,18.65-31.18,35.5-49.12,51c-11.87,10.26-24.85,18.98-37.71,27.88
		c-0.96,0.66-1.86,1.36-3.16,1.23c-7.87-0.82-15.74-1.61-24.5-2.49c16.6-12.42,30.8-26.13,44.38-40.54
		c16.61-17.63,30.9-37.03,44.33-57.11c1.38-2.07,1.29-3.26-0.75-4.8c-3.72-2.78-7.21-5.87-11.52-9.43
		C214.41,133.83,234.85,125.38,256.03,116.62z"/>
	<path class="st2" d="M349.9,233.11c12.78,0.56,12.76,0.55,10.53,13.29c-0.72,4.1-1.14,8.26-2,12.32c-0.49,2.32,0.15,2.98,2.38,2.91
		c3.33-0.1,6.66,0.03,10-0.01c2.6-0.03,3.66,1.18,3.26,3.74c-0.13,0.82-0.16,1.66-0.28,2.48c-1.74,12.53-1.74,12.78-14.21,12.96
		c-5.22,0.07-5.21,4.2-5.29,6.69c-0.46,13.37-3.28,26.4-4.95,39.59c-0.06,0.5-0.13,0.99-0.18,1.49c-0.92,8.76,1.76,11.24,10.55,9.78
		c5.92-0.98,5.9-0.98,4.67,4.78c-0.45,2.12-0.84,4.25-1.17,6.39c-1.37,8.73-1.61,9.13-10.16,10.76c-5.56,1.06-11.18,1.74-16.87,0.63
		c-11.28-2.19-16.46-8.25-16.05-19.82c0.41-11.5,2.76-22.8,4.3-34.18c0.98-7.26,1.81-14.54,3-21.77c0.54-3.31-0.1-4.39-3.69-4.17
		c-6.31,0.38-6.34,0.11-5.25-5.92c0.18-0.98,0.38-1.96,0.52-2.95c0.42-2.96,0.03-6.4,1.44-8.77c1.66-2.79,5.5-1.23,8.37-1.57
		c2.23-0.27,2.67-1.76,3.08-3.33c1.64-6.28,3.56-12.52,4.64-18.9c0.88-5.2,3.24-7.27,8.4-6.48
		C346.54,233.32,348.24,233.11,349.9,233.11z"/>
	<path class="st1" d="M356.97,189c31.92-7.89,63.38-14.82,95.32-19.43c45.52-6.57,91.22-10.79,137.21-12.35
		c41.52-1.41,82.93-0.58,124.25,3.43c21.03,2.04,41.92,5.27,62.1,11.91c2.99,0.98,5.86,2.33,8.75,3.59c2.66,1.15,3.49,3.3,3.25,6.1
		c-0.58,6.75-2.39,7.98-8.81,5.91c-29.44-9.49-59.72-14.65-90.44-17.55c-62.22-5.87-124.43-4.19-186.63,0.18
		c-46.87,3.3-93.31,10.02-139.58,18.07C360.8,189.14,359.27,189.58,356.97,189z"/>
	<path class="st2" d="M514,345.51c0.27,11.88,0.22,11.98-11.38,14.69c-6.71,1.56-13.48,1.89-20.28,0.56
		c-13.48-2.65-22.82-10.33-25.72-23.83c-5.37-25.06,0.13-47.76,18.67-65.86c13.48-13.17,30.16-14.09,47.5-8.33
		c2.56,0.85,3.74,2.18,2.92,5.21c-1.44,5.29-2.61,10.67-3.53,16.07c-0.53,3.14-1.43,3.84-4.53,2.55
		c-14.52-6.02-24.26-1.66-29.93,13.11c-3.5,9.12-3.89,18.67-2.25,28.01c1.09,6.24,5.49,9.65,12.72,9.88
		c3.91,0.13,7.57-1.01,11.08-2.6c3.25-1.47,5.07-1.08,4.77,3.06C513.85,340.51,514,343.01,514,345.51z"/>
	<path class="st1" d="M744.54,276.25c2.63-2.26,5.39-4.53,8.03-6.93c4.78-4.36,10.08-7.62,16.65-8.35c3.24-0.36,4.62,0.75,3.74,4.28
		c-1.66,6.61-3.14,13.27-4.53,19.94c-0.43,2.08-1.33,2.56-3.38,2.52c-15.01-0.32-23.06,8.25-24,24.72
		c-0.7,12.17-2.87,24.26-4.59,36.36c-1.52,10.73-1.65,10.71-12.72,10.7c-4.5-0.01-8.99-0.09-13.49-0.06
		c-2.68,0.02-3.37-1.12-3.02-3.73c3.57-26.85,7.04-53.72,10.54-80.58c0.11-0.82,0.22-1.65,0.3-2.48
		c1.21-11.51-0.86-10.78,11.92-10.84c4.63-0.02,10.36-1.9,13.6,0.79c3.28,2.72,0.08,8.45,0.67,12.83
		C744.32,275.86,744.54,276.27,744.54,276.25z"/>
	<path class="st1" d="M1027.93,271.53c24.25,21.57,27.82,51.41,5.66,73.86c-6.64,6.73-13.72,12.94-22.97,18.19
		c2.63-9.21-2.49-14.93-6.74-21.06c-5.95-8.58-5.9-8.68,1.6-15.76c10.56-9.97,19.54-20.89,22.81-35.57
		c1.48-6.66-0.08-13.17-0.29-19.75L1027.93,271.53z"/>
	<path class="st2" d="M105.56,207.22c5.01-0.1,7.24,0.98,7.91,5.12c1.65,10.33,3.81,20.58,5.7,30.87c0.88,4.79-4.35,10.83-9.25,10.5
		c-7.13-0.48-14.23-1.34-21.36-1.8c-2.53-0.16-3.29-1.23-3.73-3.56c-1.88-9.95-3.9-19.88-6.03-29.78c-0.76-3.53,0.84-5.77,3.81-6.49
		C90.66,210.12,98.83,208.61,105.56,207.22z"/>
	<path class="st2" d="M128.98,239.88c-3.14-15.51-6.16-30.15-9.02-44.82c-0.63-3.23,1.46-4.92,4.39-5.59
		c7.3-1.65,14.58-3.39,21.92-4.81c5.71-1.1,7.33,0.2,8.52,6.02c1.1,5.38,1.81,10.86,3.34,16.11c1.12,3.82-0.14,5.98-2.75,8.53
		C147.09,223.47,138.74,231.55,128.98,239.88z"/>
	<path class="st1" d="M190.01,399.74c0.1,9.56-6.75,16.59-16.16,16.57c-9.68-0.02-16.72-6.73-16.8-15.99
		c-0.07-8.94,6.89-15.79,16.24-15.97C182.69,384.17,189.92,390.82,190.01,399.74z"/>
	<path class="st1" d="M73.17,416.6c-9.29-0.03-15.39-5.5-15.46-13.88c-0.07-9.31,5.71-15.01,15.32-15.1
		c8.84-0.09,15.13,5.85,15.17,14.31C88.23,411.19,82.66,416.63,73.17,416.6z"/>
	<path class="st2" d="M66.6,249.81c-7.79-0.74-15.58-1.58-23.38-2.15c-2.39-0.17-3.69-0.83-3.94-3.34
		c-0.16-1.65-0.64-3.27-1.06-4.88c-1.04-4.02,0.41-6.44,4.49-7.31c7-1.49,13.97-3.14,20.99-4.5c5.8-1.12,7.47,0.16,8.53,5.83
		c0.76,4.09,1.28,8.26,2.39,12.25c1.15,4.11-0.22,5.13-4.04,4.34c-1.3-0.27-2.65-0.24-3.98-0.35
		C66.61,249.75,66.61,249.78,66.6,249.81z"/>
	<path class="st2" d="M193.5,228.36c1.61,10.17,3.09,19.63,4.62,29.09c0.4,2.46-0.51,3.31-2.95,3.1c-9.92-0.85-19.84-1.6-29.77-2.42
		c-1.24-0.1-2.91,0.21-3.11-1.67c-0.19-1.78-0.23-3.37,1.62-4.79C173.64,244.19,183.21,236.51,193.5,228.36z"/>
	<path class="st1" d="M1027.99,271.45c-0.24-0.03-0.48-0.06-0.72-0.08c0.09-0.2,0.18-0.41,0.27-0.61c0.13,0.26,0.25,0.52,0.38,0.78
		C1027.93,271.53,1027.99,271.45,1027.99,271.45z"/>
	<path class="st0" d="M995.73,354.79c-5.59,3.63-11.06,6.82-16.09,10.6c-3.17,2.39-4.53,1.42-6.5-1.36
		c-7.12-10.03-14.46-19.91-21.75-29.82c-1.47-2-3.08-3.89-4.86-6.15c-3.32,4.1-6.41,7.94-9.52,11.77
		c-3.11,3.83-5.8,8.08-10.87,10.81c-3.78-31.24-7.5-62.07-11.33-93.76c28.78,14,55.55,29.92,83.39,46.06
		c-11.17,4.12-21.22,7.83-31.44,11.6C976.53,328.14,986.13,341.46,995.73,354.79z"/>
	<path class="st0" d="M660.43,410.97c-0.53,5.97-1.27,10.83-1.31,15.7c-0.04,4.98-3.78,4.14-6.31,4.06c-3.07-0.1-1.2-2.79-1.09-4.25
		c0.49-6.79,1.14-13.57,1.84-20.35c0.19-1.83-0.24-4.37,2.83-4.29c2.89,0.08,6.32-2.09,8.34,2c2.24,4.54,4.62,9.02,7.36,14.37
		c0.47-5.7,1.16-10.48,1.19-15.26c0.02-4.89,3.77-4.07,6.27-4.14c3.12-0.09,1.43,2.74,1.33,4.13c-0.51,6.96-1.4,13.88-1.94,20.84
		c-0.2,2.57-1.03,3.92-3.77,4.1c-2.68,0.17-5.46,1.86-7.2-1.96C665.82,421.17,663.3,416.6,660.43,410.97z"/>
	<path class="st0" d="M372.99,436.21c0.89-5.83,1.79-10.4,2.23-15.02c0.42-4.38,3.33-3.65,6.11-3.46c3.85,0.25,1.8,2.94,1.56,4.42
		c-1.11,6.72-2.48,13.4-3.81,20.09c-0.36,1.79,0.22,4.42-2.95,4.17c-2.91-0.23-6.47,1.32-7.93-3.07c-1.83-5.5-3.91-10.92-6.06-16.86
		c-1.02,5.61-2.25,10.79-2.81,16.04c-0.43,4.08-3.03,3-5.37,3.01c-3.77,0.02-2.16-2.54-1.88-4.19c1.14-6.72,2.37-13.42,3.73-20.1
		c0.34-1.69-0.35-4.6,2.91-4.16c2.99,0.4,6.86-1.49,8.4,3.19C368.8,425.28,370.77,430.2,372.99,436.21z"/>
	<path class="st0" d="M526.6,434.77c0.85-6.5,1.77-11.75,2.17-17.04c0.35-4.61,3.69-2.94,5.92-3.03c3.59-0.14,1.58,2.56,1.43,3.93
		c-0.74,6.94-1.61,13.87-2.62,20.78c-0.25,1.71,0.23,4.46-2.98,4.09c-2.85-0.33-6.4,1.79-8.18-2.49c-2.08-4.99-4.41-9.88-7-15.62
		c-0.72,5.86-1.51,10.85-1.91,15.87c-0.33,4.26-3.39,3.33-5.82,3.31c-3.44-0.04-1.65-2.7-1.5-4.05c0.77-6.94,1.85-13.84,2.74-20.76
		c0.26-2.06,0.31-4.2,3.2-3.9c2.69,0.28,6.01-1.92,7.83,2.07C522.2,423.02,524.65,428.08,526.6,434.77z"/>
	<path class="st0" d="M641.12,420.98c-0.06,0.69-0.05,0.86-0.09,1.02c-0.9,3.49,1.03,8.67-2.98,10.19
		c-6.44,2.45-13.5,4.26-20.27,0.53c-4.03-2.22-5.72-7.57-4.66-13.26c1.91-10.21,16.65-18.41,26.41-14.83
		c2.22,0.82,1.35,2.28,1.3,3.64c-0.06,1.73-0.59,2.8-2.72,2.47c-3.86-0.6-7.62-0.15-11.16,1.65c-4.5,2.3-6.59,7.65-4.77,12.3
		c1.31,3.37,6.12,5.01,9.34,3.3c1.5-0.8,1.4-2.08,1.47-3.4c0.08-1.42-0.79-1.65-1.91-1.51c-1.84,0.23-2.31-0.67-2.16-2.34
		c0.15-1.66-0.06-3.44,2.32-3.66c1.65-0.16,3.32-0.28,4.94-0.6C640.46,415.64,642.71,416.65,641.12,420.98z"/>
	<path class="st0" d="M484.21,445.52c-10.39,1.04-10.43,1.03-9.17-9.05c0.66-5.27,1.56-10.51,2.26-15.77
		c0.31-2.33,1.21-3.35,3.79-3.34c4.81,0.01,9.61-0.51,14.43-0.64c1.19-0.03,3.57-1.03,3.08,1.64c-0.29,1.61,0.53,4.33-2.7,4.41
		c-2.65,0.07-5.3,0.46-7.95,0.48c-2.09,0.02-2.96,0.82-3.01,2.92c-0.07,2.56,1.73,1.9,3.08,1.96c1.32,0.06,2.68-0.22,3.98-0.04
		c1.3,0.18,3.77-1.41,3.46,1.77c-0.2,2.02,0.06,4.51-3.32,4.31c-2.14-0.13-4.31,0.19-6.47,0.23c-2.46,0.04-2.33,1.91-2.53,3.51
		c-0.29,2.3,1.47,1.68,2.64,1.71c2.16,0.04,4.33-0.2,6.47,0c1.27,0.12,3.82-1.31,3.43,1.73c-0.24,1.92-0.14,4.51-3.51,4.23
		C489.53,445.35,486.86,445.52,484.21,445.52z"/>
	<path class="st0" d="M439.57,418.18c2.16,0,4.34-0.16,6.48,0.06c1.28,0.13,3.86-1.29,3.35,1.92c-0.32,2.02-0.22,4.47-3.59,4.17
		c-2.47-0.23-4.99,0.14-7.48,0.02c-2.29-0.12-2.81,1.2-2.99,3.03c-0.25,2.61,1.75,1.83,3.04,1.95c1.49,0.14,3.01-0.08,4.48,0.11
		c1.2,0.15,3.45-0.94,3.01,1.79c-0.28,1.76,0.31,4.31-2.88,4.23c-1.99-0.05-4,0.21-5.98,0.04c-2.6-0.22-3.62,0.98-3.76,3.37
		c-0.19,3.12,2.2,1.74,3.49,1.87c2.14,0.22,4.32-0.01,6.48,0.08c1.16,0.05,3.08-0.57,2.7,1.69c-0.28,1.63,0.12,4.08-2.5,4.18
		c-5.81,0.22-11.63,0.25-17.45,0.29c-2.33,0.01-2.03-1.59-1.76-3.15c1.28-7.53,2.63-15.06,3.74-22.62c0.35-2.38,1.45-3.02,3.63-2.92
		c2.66,0.12,5.32,0.03,7.98,0.03C439.57,418.27,439.57,418.22,439.57,418.18z"/>
	<path class="st0" d="M690.95,416.87c0.41-5.64,0.92-11.28,1.2-16.93c0.12-2.4,0.9-3.51,3.44-3.8c4.62-0.52,9.19-1.5,13.8-2.13
		c1.23-0.17,3.28-1.49,3.5,1.05c0.17,1.99,0.57,4.48-2.74,4.83c-2.47,0.26-4.89,1.08-7.36,1.26c-2.6,0.19-2.98,1.73-2.77,3.71
		c0.29,2.8,2.2,1.04,3.4,1.04c1.32,0,2.66-0.5,3.96-0.4c1.19,0.1,3.3-1.82,3.46,0.92c0.12,1.96,0.51,4.55-2.76,4.93
		c-2.31,0.27-4.59,0.77-6.89,1.15c-2.12,0.35-1.86,1.98-1.9,3.46c-0.06,2.26,1.56,1.68,2.77,1.55c2.31-0.25,4.6-0.73,6.92-0.91
		c1.08-0.08,3-1.16,2.97,1.16c-0.02,1.63,0.78,4.05-1.83,4.54c-5.88,1.12-11.8,2.03-17.7,3.01c-1.58,0.26-2.07-0.47-1.9-1.99
		c0.24-2.15,0.37-4.31,0.55-6.46C691.01,416.88,690.98,416.87,690.95,416.87z"/>
	<path class="st0" d="M334.31,415.33c2.82,0.18,5.68,0.19,8.46,0.62c1.26,0.19,3.85-0.71,3.24,2.31c-0.44,2.17-0.87,4.3-4.02,3.83
		c-2.3-0.34-4.65-0.25-6.97-0.47c-2.13-0.2-2.92,0.7-3.14,2.79c-0.26,2.47,1.38,2.16,2.81,2.32c1.65,0.19,3.3,0.42,4.96,0.59
		c1.31,0.13,2.85-0.08,2.37,2.08c-0.34,1.53,0.06,3.58-2.52,3.48c-2-0.07-4-0.04-5.99-0.23c-2.38-0.23-3.69,0.43-3.94,3.08
		c-0.3,3.07,2.04,2.01,3.32,2.27c1.94,0.39,3.99,0.25,5.96,0.53c1.23,0.18,3.56-0.72,3.04,1.89c-0.34,1.71-0.11,4.31-3.18,4.1
		c-5.48-0.38-10.96-0.78-16.45-1.1c-2.07-0.12-2.45-1.1-2.05-2.96c1.64-7.64,3.3-15.29,4.72-22.97c0.41-2.24,1.45-2.67,3.39-2.48
		c1.99,0.2,3.99,0.27,5.98,0.39C334.31,415.38,334.31,415.36,334.31,415.33z"/>
	<path class="st0" d="M297.95,433.68c2.94-5.36,5.42-9.97,8-14.53c3.73-6.58,3.76-6.57,11.41-4.32
		c-5.12,8.18-10.26,16.31-15.31,24.5c-2.26,3.67-5.35,1.22-8.09,1.29c-2.76,0.07-2.51-2.2-2.72-3.9
		c-0.89-6.93-1.79-13.87-2.41-20.82c-0.13-1.4-2.59-4.27,1.08-4.32c2.71-0.04,6.74-1.15,6.89,4.07
		C296.98,421.39,297.52,427.13,297.95,433.68z"/>
	<path class="st0" d="M864.07,212.68c-7.12-0.67-14.22-1.57-21.36-1.92c-3.25-0.16-3.72-1.42-3.71-4.24c0.04-9.06-0.06-9.1,8.58-7.8
		c6.39,0.96,12.73,2.28,19.14,3.02c6.8,0.79,3.81,5.83,3.97,9.09c0.22,4.47-3.35,1.33-5.13,1.87c-0.45,0.13-0.99-0.05-1.49-0.08
		C864.07,212.64,864.07,212.66,864.07,212.68z"/>
	<path class="st0" d="M855.03,230.33c-4.16,0-8.33-0.09-12.49,0.04c-2.48,0.08-3.59-0.58-3.47-3.35c0.52-11.82-2.39-10.14,9.74-8.95
		c6.13,0.6,12.26,1.23,18.41,1.61c6.24,0.38,3,5.04,3.67,7.86c0.81,3.38-1.57,3.17-3.87,3.12c-4-0.1-8-0.03-11.99-0.03
		C855.03,230.52,855.03,230.43,855.03,230.33z"/>
	<path class="st0" d="M839.06,185.15c0.01-7.01,0.01-7.02,6.04-5.68c7.61,1.69,15.22,3.34,22.81,5.1c5.84,1.35,2.31,5.97,2.65,8.94
		c0.37,3.24-2.64,1.35-4.05,1.16c-7.08-0.93-14.1-2.36-21.2-3.05C840.5,191.15,837.56,189.88,839.06,185.15z"/>
	<path class="st0" d="M405.85,418.39c3.32,0,6.65-0.1,9.97,0.05c1.19,0.05,3.44-0.93,3.08,1.75c-0.27,1.97-0.03,4.83-3.41,4.2
		c-5.75-1.08-7.45,1.7-7.69,6.94c-0.18,4.12-1.44,8.18-1.85,12.3c-0.5,5.1-4.28,3.21-6.8,3.19c-3.8-0.02-1.6-2.83-1.4-4.38
		c0.62-4.77,1.33-9.55,2.35-14.24c0.69-3.17-0.23-4.04-3.38-3.98c-1.64,0.03-4.62,1.51-4.7-2.28c-0.09-3.99,2.51-3.91,5.36-3.78
		c2.82,0.13,5.65,0.03,8.48,0.03C405.85,418.27,405.85,418.33,405.85,418.39z"/>
	<path class="st0" d="M577.34,433.58c0.99-0.05,2-0.24,2.98-0.12c1.12,0.13,3.16-0.98,3.1,1.01c-0.05,1.65,0.68,4.45-2.27,4.77
		c-5.6,0.62-11.23,0.99-16.85,1.5c-2.28,0.21-2.3-1.06-2.08-2.78c0.99-7.73,1.93-15.47,2.81-23.21c0.53-4.63,4.21-2.81,6.55-3.02
		c3.05-0.29,1.49,2.33,1.41,3.61c-0.26,3.97-0.78,7.92-1.26,11.87C570.92,433.83,570.9,433.83,577.34,433.58z"/>
	<path class="st0" d="M943.02,257.11c9.2-7.72,20.37-10.57,30.8-14.97c3.53-1.49,7.5-1.63,10.71-4.49c1.79-1.59,5.25,0.23,6.24,2.31
		c1.03,2.17,1.43,5.76-0.69,7.31c-1.48,1.08-5.09,0.26-5.86-2.15c-1.09-3.43-2.46-0.93-3.45-0.48c-10.6,4.84-21.18,9.68-32.63,12.25
		C946.61,257.24,945.07,257.87,943.02,257.11z"/>
	<path class="st0" d="M603.87,412.94c-0.72,6.3-1.7,13.85-2.41,21.43c-0.45,4.82-4.33,3.53-6.74,3.54c-3.47,0.02-1.49-3.1-1.37-4.59
		c0.61-7.25,1.69-14.46,2.41-21.71c0.44-4.43,3.85-2.6,6.06-3.07C604.56,407.97,604.14,410.03,603.87,412.94z"/>
	<path class="st0" d="M870.58,310.22c7.94-12.55,18.51-22.22,31.77-28.91C894.19,293.6,883.1,302.7,870.58,310.22z"/>
	<path class="st0" d="M910.63,204.46c6.93,12.54,8.17,26.11,6.86,40.12C911.87,231.83,909.65,218.45,910.63,204.46z"/>
	<path class="st0" d="M955.96,216.12c-5.83,11.96-13.69,22.25-23.96,30.63C936.46,233.78,944.85,223.86,955.96,216.12z"/>
	<path class="st0" d="M899.78,264.89c-11.33,4.87-22.74,5-34.15,0.23C876.98,263.73,888.32,262.5,899.78,264.89z"/>
	<path class="st0" d="M879.24,231.11c6.96,2.76,13.03,6.95,18.78,11.65c2.38,1.95,4.57,4.1,5.36,7.44
		c-9.5-3.96-18.14-9.06-24.5-17.4c-0.43-0.56-0.26-1.24,0.39-1.69L879.24,231.11z"/>
	<path class="st0" d="M924.09,143.92c-0.89,1.26,1.21,4.4-1.67,4.03c-3.21-0.41-7.37-1.09-8.41-4.88c-0.68-2.49-1.38-7.15,0.56-7.82
		c2.77-0.95,6,1.71,8.51,3.84C924.6,140.37,923.59,142.25,924.09,143.92z"/>
	<path class="st0" d="M914.47,170.58c1.11-1.54-1.64-5.1,1.73-4.96c2.94,0.12,6.76,1.31,7.61,5.1c0.52,2.33,0.97,5.84-0.28,7.1
		c-1.54,1.56-4.48-0.59-6.78-1.27C913.36,175.55,915.21,172.7,914.47,170.58z"/>
	<path class="st0" d="M923.88,159.33c-0.77,1.05,1.55,3.74-1.58,3.87c-5.19,0.22-7.75-3.01-7.59-9.4c0.03-1.21-1.09-3.23,1.34-3.5
		C919.74,149.9,923.89,154.63,923.88,159.33z"/>
	<path class="st0" d="M911.48,153.95c-0.86,1.24,1.81,4.61-1.33,4.39c-2.32-0.17-6.27-0.65-6.35-4.86
		c-0.02-0.83-0.22-1.71,0.01-2.47c0.55-1.89-1.8-5.42,1.77-5.42c3.11,0,6.69,1.39,5.91,6.09C911.39,152.32,911.48,153,911.48,153.95
		z"/>
	<path class="st0" d="M903.69,166.03c1.21-1.11-2.19-4.75,2.19-4.64c4.11,0.1,6.51,2.12,5.58,6.58c-0.41,1.97,1.57,5.07-1.65,5.74
		C906.14,174.46,903.7,171.23,903.69,166.03z"/>
	<path class="st0" d="M903.76,133.83c0.82-1.09-1.56-4.47,1.69-4.06c2.22,0.28,5.96,0.65,5.92,4.69c-0.01,0.83,0.2,1.71-0.02,2.47
		c-0.57,1.9,1.62,5.54-1.7,5.43c-2.84-0.09-6.73-1.47-5.9-6.19C903.86,135.54,903.76,134.86,903.76,133.83z"/>
	<path class="st0" d="M993.84,245.54c0.41-1.39-0.9-3.88,1.87-4.1c3.48-0.27,5.84,2.65,5.63,6.81c-0.06,1.22,0.7,3.77-1.57,3.12
		C997.1,250.59,992.32,251.1,993.84,245.54z"/>
	<path class="st0" d="M991.2,203.13c-0.64,1.09,1.18,4.14-1.83,3.67c-3.19-0.5-6.6-1.91-5.67-6.44c0.27-1.31-1.28-3.64,1.67-3.68
		C988.88,196.65,991.22,199.2,991.2,203.13z"/>
	<path class="st0" d="M983.74,227.33c0.58-1.14-1.28-3.47,1.45-3.83c2.91-0.38,6.09,2.96,5.9,6.25c-0.08,1.35,1.31,3.63-1.49,3.92
		C986.24,234.01,983.73,231.28,983.74,227.33z"/>
	<path class="st0" d="M1001.18,211.79c-3.21-1.3-7.13-0.9-7-5.39c0.05-1.64-1.67-4.83,1.29-4.74c2.18,0.07,5.98,0.58,5.72,4.76
		C1001.1,208.05,1001.18,209.69,1001.18,211.79z"/>
	<path class="st0" d="M991.14,216.82c-0.56,1.06,1.2,3.92-1.6,3.37c-3.1-0.6-6.6-1.88-5.71-6.42c0.25-1.3-1.2-3.61,1.78-3.52
		C989.35,210.36,991.14,212.47,991.14,216.82z"/>
	<path class="st0" d="M1001.35,221.1c-0.57,1.11,1.1,3.96-1.61,3.51c-2.95-0.5-6.98-1-5.96-5.91c0.29-1.38-1.15-3.61,1.53-3.91
		C998.29,214.45,1001.38,217.72,1001.35,221.1z"/>
	<path class="st0" d="M994.4,230.64c0.18-0.41-1.18-3.16,0.82-2.68c2.58,0.62,6.8,0.85,6,5.53c-0.26,1.51,1.24,4.38-1.47,4.25
		C996.35,237.58,993.34,235.91,994.4,230.64z"/>
	<path class="st0" d="M1010.83,226.58c-0.23,0.44,1.29,3.58-1.21,2.68c-2.53-0.92-6.86-1.74-5.63-6.49
		c0.31-1.19-0.86-3.76,1.55-3.17C1008.45,220.32,1012.38,220.98,1010.83,226.58z"/>
	<path class="st0" d="M1004.55,248.63c0.18-0.42-1.26-3.21,1.28-2.84c2.59,0.38,6.32,0.9,5.49,5.27c-0.29,1.52,1.14,4.4-1.61,4.24
		C1006.67,255.14,1003.25,254.1,1004.55,248.63z"/>
	<path class="st0" d="M1011.04,212c-0.47,0.72,1.73,3.93-1.93,3.54c-3.17-0.34-5.61-1.87-4.88-5.74c0.28-1.5-0.92-4.32,2.06-3.81
		C1008.89,206.44,1012.28,207.06,1011.04,212z"/>
	<path class="st0" d="M1011.23,238.68c-0.5,1.08,1.07,3.79-1.95,3.18c-2.75-0.55-5.68-1.46-5.03-5.41c0.23-1.43-0.76-3.57,2.23-3.31
		C1009.98,233.45,1011.31,234.82,1011.23,238.68z"/>
	<path class="st0" d="M955.43,267.92c0.88,0.59,3.24,0.14,2.32,1.89c-0.66,1.26-2.11-0.32-3.12-0.92
		C954.9,268.56,955.16,268.24,955.43,267.92z"/>
	<path class="st0" d="M954.63,268.88c-0.56-0.36-1.97-0.21-1.33-1.31c0.42-0.73,1.42,0.03,2.12,0.35
		C955.16,268.24,954.9,268.56,954.63,268.88z"/>
	<path class="st0" d="M879.26,231.12c-0.14,0.07-0.28,0.13-0.42,0.2c0.13-0.07,0.27-0.14,0.4-0.21
		C879.24,231.11,879.26,231.12,879.26,231.12z"/>
	<path class="st0" d="M38.78,270.06c7.57,0.62,14.33,1.24,21.1,1.68c2.31,0.15,3.57,1.09,4.24,3.32c1.53,5.02,3.25,9.97,4.91,15.01
		c-6.92,0-13.52-0.01-20.12,0.01c-1.86,0.01-3.07-0.67-3.73-2.55C43.21,281.94,41.11,276.37,38.78,270.06z"/>
	<path class="st0" d="M71.85,272.89c7.78,0.62,14.88,1.23,21.99,1.71c1.93,0.13,2.99,0.72,3.38,2.79c0.86,4.55,1.97,9.05,3.1,14.1
		c-7.18,0-13.96-0.09-20.73,0.05c-2.14,0.04-2.27-1.24-2.71-2.69C75.35,283.78,73.71,278.75,71.85,272.89z"/>
	<path class="st0" d="M49.58,297.87c6.89,0,13.19,0.02,19.48-0.01c1.77-0.01,2.61,0.73,3.11,2.48c1.27,4.47,2.68,8.91,4.26,13.28
		c0.69,1.9,0.17,2.38-1.6,2.42c-5.49,0.12-10.97,0.27-16.46,0.43c-1.31,0.04-2.12-0.41-2.6-1.74
		C53.78,309.13,51.69,303.58,49.58,297.87z"/>
	<path class="st0" d="M69.29,323.31c9.69-0.32,9.69-0.32,12.46,8.33c2.8,8.72,2.8,8.72-6.25,9.66c-0.66,0.07-1.32,0.11-1.98,0.18
		c-7.53,0.76-7.53,0.76-10.38-6.75c-0.12-0.31-0.22-0.62-0.32-0.94c-1-3.28-4.32-7.24-2.82-9.49
		C61.55,321.98,66.47,323.72,69.29,323.31z"/>
	<path class="st0" d="M79.38,298.62c6.69,0,13.14,0.01,19.59,0c1.58,0,2.85,0.12,3.21,2.18c0.67,3.92,1.53,7.81,2.48,11.66
		c0.52,2.12-0.67,2.13-2.1,2.18c-4.81,0.19-9.62,0.31-14.42,0.68c-2.48,0.19-3.49-0.83-4.18-3.09
		C82.56,307.7,81.65,302.99,79.38,298.62z"/>
	<path class="st0" d="M119.65,292.11c-11.46-0.48-11.26-0.52-13.67-11.9c-0.89-4.21,0.34-4.69,4.02-4.16
		c5.09,0.73,10.25,1.14,15.39,1.36c2.79,0.12,3.49,1.27,3.85,3.87C130.82,292.59,130.92,292.58,119.65,292.11z"/>
	<path class="st0" d="M87.05,322.45c5.8-0.26,11.26-0.49,16.71-0.76c1.59-0.08,2.99-0.1,3.19,2.07c0.43,4.53,3.11,8.77,2.13,13.34
		c-0.17,0.79-3.95,0.86-6.08,1.14c-11.05,1.45-11.05,1.44-14.09-9.23C88.33,326.96,87.75,324.92,87.05,322.45z"/>
	<path class="st0" d="M148.79,293.15c-11.01-0.39-10.93-0.39-11.65-11.46c-0.15-2.38,0.25-3.35,2.83-3.06
		c5.28,0.59,10.58,1.08,15.89,1.42c2.5,0.16,3.24,1.15,3.34,3.66C159.61,293.54,159.72,293.54,148.79,293.15z"/>
	<path class="st0" d="M120.7,299.39c0.33,0,0.66-0.01,0.99,0c9.62,0.33,9.46,0.36,10.89,10.03c0.49,3.33-0.2,4.46-3.58,4.17
		c-2.63-0.22-5.3,0.04-7.95,0.11c-8.35,0.21-8.35,0.21-9.9-8.03c-0.28-1.46-0.51-2.94-0.88-4.38c-0.45-1.78,0.17-2.38,1.98-2.31
		c2.81,0.12,5.63,0.03,8.44,0.03C120.7,299.15,120.7,299.27,120.7,299.39z"/>
	<path class="st0" d="M125.65,320.44c8.25-0.13,7.95-0.08,9.24,8.05c0.78,4.92-0.67,6.98-5.53,6.81c-0.16-0.01-0.33,0.03-0.49,0.05
		c-12.13,1.31-11.99,1.29-13.95-10.84c-0.47-2.9,0.51-3.39,2.82-3.51C120.37,320.85,123.01,320.62,125.65,320.44z"/>
	<path class="st0" d="M177.72,293.73c-1.99,0-4.01-0.17-5.98,0.04c-3.55,0.38-4.93-0.67-4.81-4.59c0.24-8.19-0.01-8.19,8.26-7.46
		c3.64,0.32,7.28,0.74,10.93,0.86c2.62,0.09,3.28,1.17,3.24,3.7C189.25,294.26,189.37,294.26,177.72,293.73z"/>
	<path class="st0" d="M149.33,300.35c0.99,0,1.99-0.02,2.98,0c7.63,0.16,7.39,0.17,7.73,7.62c0.17,3.71-0.77,4.94-4.55,4.62
		c-3.77-0.32-7.61-0.06-11.41,0.16c-2.37,0.14-3.49-0.41-3.92-3.05C138.62,299.98,138.5,300,149.33,300.35z"/>
	<path class="st0" d="M160.37,326.67c1.69,4.63-1.62,5.5-5.74,5.67c-0.83,0.03-1.65,0.18-2.47,0.18c-3.07-0.01-7.08,2.39-8.94,0.25
		c-2.38-2.74-0.98-7.32-1.75-11.05c-0.44-2.12,1.25-1.93,2.53-1.99c3.14-0.14,6.28-0.22,9.42-0.31
		C160.19,319.24,160.19,319.25,160.37,326.67z"/>
	<path class="st0" d="M177.88,311.98c-1.5,0-3.03-0.21-4.49,0.04c-4.86,0.83-6.15-1.15-6.27-5.94c-0.12-4.63,1.32-5.74,5.58-5.32
		c4.13,0.4,8.32,0.27,12.48,0.23c2.53-0.02,3.39,0.74,3.19,3.52C187.88,311.66,188.06,311.67,177.88,311.98z"/>
	<path class="st0" d="M177.61,318.6c0.83,0,1.66,0.01,2.49,0c7.82-0.11,7.71-0.11,6.47,7.54c-0.38,2.33-1.36,3-3.49,3.14
		c-3.64,0.24-7.31,0.49-10.9,1.13c-3.59,0.64-4.77-0.74-4.49-4.12c0.1-1.15-0.04-2.33-0.22-3.48c-0.46-2.92,0.4-4.4,3.66-4.06
		c2.14,0.22,4.31,0.04,6.47,0.04C177.61,318.73,177.61,318.67,177.61,318.6z"/>
	<path class="st0" d="M662.93,246.32c13.31-0.08,18.69,5.42,18.29,18.57c-0.5,16.36-12.17,26.48-28.31,24.7
		c-2.19-0.24-2.71-0.79-2.4-3.04c1.64-11.86,3.27-23.72,4.51-35.62C655.62,245.1,659.75,246.7,662.93,246.32z"/>
	<path class="st0" d="M793.95,323.27c-0.27-9.04,1.69-17.83,3.54-26.55c0.85-4,3.3-7.76,6.4-10.77c5.53-5.38,11.98-3.7,14.03,3.76
		c1.9,6.89,0.88,13.89-0.01,20.79c-0.95,7.41-2.2,14.8-6.01,21.43c-2.94,5.12-7.32,7.73-11.21,6.28c-4.95-1.84-6.59-5.96-6.53-10.96
		C794.17,325.93,794.02,324.6,793.95,323.27z"/>
	<path class="st0" d="M423.27,300.71c-1.04,9.55-1.36,19.5-5.96,28.58c-0.53,1.04-1.05,2.08-1.66,3.06
		c-2.33,3.72-5.34,6.75-10.08,5.84c-4.91-0.94-6.15-5.06-6.68-9.41c-1.52-12.31,0.29-24.18,4.75-35.69
		c1.28-3.29,3.09-6.29,5.98-8.44c4.8-3.57,9.88-2.09,12.05,3.47c0.48,1.23,0.91,2.54,1.05,3.84
		C422.99,294.78,423.08,297.6,423.27,300.71z"/>
</g>
</svg>
